<?xml version="1.0" standalone="no"?>
 <!DOCTYPE svg PUBLIC "-//W3C//DTD SVG 1.1//EN" 
 "http://www.w3.org/Graphics/SVG/1.1/DTD/svg11.dtd"> 
<svg
  xmlns:svg="http://www.w3.org/2000/svg"
  xmlns="http://www.w3.org/2000/svg"
  xmlns:xlink="http://www.w3.org/1999/xlink"
  version="1.1"
  width="4.084320cm" height="5.087620cm" viewBox="0 0 40843200 50876200">
<title>SVG Picture created as auxiliary-brd.svg date 2022/11/14 13:53:06 </title>
  <desc>Picture generated by PCBNEW </desc>
<g style="fill:#000000; fill-opacity:1.000000;stroke:#000000; stroke-opacity:1.000000;
stroke-linecap:round; stroke-linejoin:round;"
 transform="translate(0 0) scale(1 1)">
</g>
<g style="fill:#000000; fill-opacity:0.0; 
stroke:#000000; stroke-width:0.000000; stroke-opacity:1; 
stroke-linecap:round; stroke-linejoin:round;">
<g >
</g>
<g style="fill:#000000; fill-opacity:0.0; 
stroke:#000000; stroke-width:1.000000; stroke-opacity:1; 
stroke-linecap:round; stroke-linejoin:round;">
</g>
<g style="fill:#000000; fill-opacity:1.0; 
stroke:#000000; stroke-width:1.000000; stroke-opacity:1; 
stroke-linecap:round; stroke-linejoin:round;">
<path style="fill:#000000; fill-opacity:1.0; 
stroke:#000000; stroke-width:1.000000; stroke-opacity:1; 
stroke-linecap:round; stroke-linejoin:round;fill-rule:evenodd;"
d="M 28902143.000000,11060000.000000
28902143.000000,9360000.000000
30602143.000000,9360000.000000
30602143.000000,11060000.000000
Z" /> 
<circle cx="29752143.000000" cy="12750000.000000" r="850000.000000" /> 
<circle cx="29752143.000000" cy="15290000.000000" r="850000.000000" /> 
<circle cx="29752143.000000" cy="17830000.000000" r="850000.000000" /> 
</g>
<g >
</g>
<g >
</g>
<g >
</g>
<g style="fill:#000000; fill-opacity:1.0; 
stroke:#000000; stroke-width:1.000000; stroke-opacity:1; 
stroke-linecap:round; stroke-linejoin:round;">
<circle cx="21012143.000000" cy="10210000.000000" r="1000000.000000" /> 
</g>
<g style="fill:#000000; fill-opacity:1.0; 
stroke:#000000; stroke-width:21200.000000; stroke-opacity:1; 
stroke-linecap:round; stroke-linejoin:round;">
</g>
<g style="fill:#000000; fill-opacity:1.0; 
stroke:#000000; stroke-width:1.000000; stroke-opacity:1; 
stroke-linecap:round; stroke-linejoin:round;">
<circle cx="14512143.000000" cy="10210000.000000" r="1000000.000000" /> 
</g>
<g style="fill:#000000; fill-opacity:1.0; 
stroke:#000000; stroke-width:21200.000000; stroke-opacity:1; 
stroke-linecap:round; stroke-linejoin:round;">
</g>
<g style="fill:#000000; fill-opacity:1.0; 
stroke:#000000; stroke-width:1.000000; stroke-opacity:1; 
stroke-linecap:round; stroke-linejoin:round;">
<circle cx="21012143.000000" cy="14710000.000000" r="1000000.000000" /> 
</g>
<g style="fill:#000000; fill-opacity:1.0; 
stroke:#000000; stroke-width:21200.000000; stroke-opacity:1; 
stroke-linecap:round; stroke-linejoin:round;">
</g>
<g style="fill:#000000; fill-opacity:1.0; 
stroke:#000000; stroke-width:1.000000; stroke-opacity:1; 
stroke-linecap:round; stroke-linejoin:round;">
<circle cx="14512143.000000" cy="14710000.000000" r="1000000.000000" /> 
</g>
<g style="fill:#000000; fill-opacity:1.0; 
stroke:#000000; stroke-width:21200.000000; stroke-opacity:1; 
stroke-linecap:round; stroke-linejoin:round;">
</g>
<g >
</g>
<g style="fill:#000000; fill-opacity:1.0; 
stroke:#000000; stroke-width:21200.000000; stroke-opacity:1; 
stroke-linecap:round; stroke-linejoin:round;">
</g>
<g style="fill:#000000; fill-opacity:1.0; 
stroke:#000000; stroke-width:1.000000; stroke-opacity:1; 
stroke-linecap:round; stroke-linejoin:round;">
<circle cx="14512143.000000" cy="40690000.000000" r="1000000.000000" /> 
</g>
<g style="fill:#000000; fill-opacity:1.0; 
stroke:#000000; stroke-width:21200.000000; stroke-opacity:1; 
stroke-linecap:round; stroke-linejoin:round;">
</g>
<g style="fill:#000000; fill-opacity:1.0; 
stroke:#000000; stroke-width:1.000000; stroke-opacity:1; 
stroke-linecap:round; stroke-linejoin:round;">
<circle cx="21012143.000000" cy="40690000.000000" r="1000000.000000" /> 
</g>
<g style="fill:#000000; fill-opacity:1.0; 
stroke:#000000; stroke-width:21200.000000; stroke-opacity:1; 
stroke-linecap:round; stroke-linejoin:round;">
</g>
<g style="fill:#000000; fill-opacity:1.0; 
stroke:#000000; stroke-width:1.000000; stroke-opacity:1; 
stroke-linecap:round; stroke-linejoin:round;">
<circle cx="21012143.000000" cy="45190000.000000" r="1000000.000000" /> 
</g>
<g style="fill:#000000; fill-opacity:1.0; 
stroke:#000000; stroke-width:21200.000000; stroke-opacity:1; 
stroke-linecap:round; stroke-linejoin:round;">
</g>
<g style="fill:#000000; fill-opacity:1.0; 
stroke:#000000; stroke-width:1.000000; stroke-opacity:1; 
stroke-linecap:round; stroke-linejoin:round;">
<circle cx="14512143.000000" cy="45190000.000000" r="1000000.000000" /> 
</g>
<g style="fill:#000000; fill-opacity:1.0; 
stroke:#000000; stroke-width:21200.000000; stroke-opacity:1; 
stroke-linecap:round; stroke-linejoin:round;">
</g>
<g >
</g>
<g >
</g>
<g style="fill:#000000; fill-opacity:1.0; 
stroke:#000000; stroke-width:21200.000000; stroke-opacity:1; 
stroke-linecap:round; stroke-linejoin:round;">
</g>
<g style="fill:#000000; fill-opacity:1.0; 
stroke:#000000; stroke-width:1.000000; stroke-opacity:1; 
stroke-linecap:round; stroke-linejoin:round;">
<circle cx="14512143.000000" cy="25450000.000000" r="1000000.000000" /> 
</g>
<g style="fill:#000000; fill-opacity:1.0; 
stroke:#000000; stroke-width:21200.000000; stroke-opacity:1; 
stroke-linecap:round; stroke-linejoin:round;">
</g>
<g style="fill:#000000; fill-opacity:1.0; 
stroke:#000000; stroke-width:1.000000; stroke-opacity:1; 
stroke-linecap:round; stroke-linejoin:round;">
<circle cx="21012143.000000" cy="25450000.000000" r="1000000.000000" /> 
</g>
<g style="fill:#000000; fill-opacity:1.0; 
stroke:#000000; stroke-width:21200.000000; stroke-opacity:1; 
stroke-linecap:round; stroke-linejoin:round;">
</g>
<g style="fill:#000000; fill-opacity:1.0; 
stroke:#000000; stroke-width:1.000000; stroke-opacity:1; 
stroke-linecap:round; stroke-linejoin:round;">
<circle cx="21012143.000000" cy="29950000.000000" r="1000000.000000" /> 
</g>
<g style="fill:#000000; fill-opacity:1.0; 
stroke:#000000; stroke-width:21200.000000; stroke-opacity:1; 
stroke-linecap:round; stroke-linejoin:round;">
</g>
<g style="fill:#000000; fill-opacity:1.0; 
stroke:#000000; stroke-width:1.000000; stroke-opacity:1; 
stroke-linecap:round; stroke-linejoin:round;">
<circle cx="14512143.000000" cy="29950000.000000" r="1000000.000000" /> 
</g>
<g style="fill:#000000; fill-opacity:1.0; 
stroke:#000000; stroke-width:21200.000000; stroke-opacity:1; 
stroke-linecap:round; stroke-linejoin:round;">
</g>
<g >
</g>
<g >
</g>
<g >
</g>
<g style="fill:#000000; fill-opacity:1.0; 
stroke:#000000; stroke-width:21200.000000; stroke-opacity:1; 
stroke-linecap:round; stroke-linejoin:round;">
</g>
<g style="fill:#000000; fill-opacity:1.0; 
stroke:#000000; stroke-width:500000.000000; stroke-opacity:1; 
stroke-linecap:round; stroke-linejoin:round;">
</g>
<g style="fill:#000000; fill-opacity:0.0; 
stroke:#000000; stroke-width:500000.000000; stroke-opacity:1; 
stroke-linecap:round; stroke-linejoin:round;">
<path d="M14512143 10210000
L21012143 10210000
" />
<path d="M21012143 10210000
L29752143 10210000
" />
<path d="M29752143 12750000
L21012143 21490000
" />
<path d="M14512143 25450000
L21012143 25450000
" />
<path d="M21012143 21490000
L21012143 25450000
" />
<path d="M14512143 40690000
L21012143 40690000
" />
<path d="M24672143 20370000
L29752143 15290000
" />
<path d="M24672143 37030000
L24672143 20370000
" />
<path d="M21012143 40690000
L24672143 37030000
" />
</g>
<g style="fill:#000000; fill-opacity:0.0; 
stroke:#000000; stroke-width:1000000.000000; stroke-opacity:1; 
stroke-linecap:round; stroke-linejoin:round;">
<path d="M21012143 45190000
L29752143 36450000
" />
<path d="M21012143 14710000
L14512143 14710000
" />
<path d="M21012143 29950000
L14512143 29950000
" />
<path d="M21012143 45190000
L14512143 45190000
" />
<path d="M12612143 43290000
L14512143 45190000
" />
<path d="M14512143 29950000
L12612143 31850000
" />
<path d="M12612143 31850000
L12612143 32430000
" />
<path d="M12612143 16610000
L12612143 32430000
" />
<path d="M12612143 32430000
L12612143 43290000
" />
<path d="M14512143 14710000
L12612143 16610000
" />
<path d="M29752143 36450000
L29752143 17830000
" />
</g>
<g >
</g>
<g style="fill:#000000; fill-opacity:0.0; 
stroke:#000000; stroke-width:1000000.000000; stroke-opacity:1; 
stroke-linecap:round; stroke-linejoin:round;">
<g >
</g>
<g style="fill:#000000; fill-opacity:1.0; 
stroke:#000000; stroke-width:1.000000; stroke-opacity:1; 
stroke-linecap:round; stroke-linejoin:round;">
<path style="fill:#000000; fill-opacity:1.0; 
stroke:#000000; stroke-width:1.000000; stroke-opacity:1; 
stroke-linecap:round; stroke-linejoin:round;fill-rule:evenodd;"
d="M 32773764.000000,2070502.000000
32820257.000000,2124158.000000
32831643.000000,2176500.000000
32831643.000000,48723500.000000
32811641.000000,48791621.000000
32757985.000000,48838114.000000
32705643.000000,48849500.000000
6478643.000000,48849500.000000
6410522.000000,48829498.000000
6364029.000000,48775842.000000
6352643.000000,48723500.000000
6352643.000000,45902703.000000
7322886.000000,45902703.000000
7360411.000000,46187734.000000
7436272.000000,46465036.000000
7437956.000000,46468984.000000
7537464.000000,46702275.000000
7549066.000000,46729476.000000
7696704.000000,46976161.000000
7876456.000000,47200528.000000
8084994.000000,47398423.000000
8318460.000000,47566186.000000
8322255.000000,47568195.000000
8322256.000000,47568196.000000
8344012.000000,47579715.000000
8572535.000000,47700712.000000
8842516.000000,47799511.000000
9123407.000000,47860755.000000
9151984.000000,47863004.000000
9346425.000000,47878307.000000
9346434.000000,47878307.000000
9348882.000000,47878500.000000
9504414.000000,47878500.000000
9506550.000000,47878354.000000
9506561.000000,47878354.000000
9714691.000000,47864165.000000
9714697.000000,47864164.000000
9718968.000000,47863873.000000
9723163.000000,47863004.000000
9723165.000000,47863004.000000
9859727.000000,47834723.000000
10000485.000000,47805574.000000
10271486.000000,47709607.000000
10526955.000000,47577750.000000
10530456.000000,47575289.000000
10530460.000000,47575287.000000
10644561.000000,47495095.000000
10762166.000000,47412441.000000
10972765.000000,47216740.000000
11154856.000000,46994268.000000
11305070.000000,46749142.000000
11333478.000000,46684428.000000
11418900.000000,46489830.000000
11420626.000000,46485898.000000
11435818.000000,46432568.000000
11438637.000000,46422670.000000
13644303.000000,46422670.000000
13650030.000000,46430320.000000
13821185.000000,46535205.000000
13829980.000000,46539687.000000
14040131.000000,46626734.000000
14049516.000000,46629783.000000
14270697.000000,46682885.000000
14280444.000000,46684428.000000
14507213.000000,46702275.000000
14517073.000000,46702275.000000
14743842.000000,46684428.000000
14753589.000000,46682885.000000
14974770.000000,46629783.000000
14984155.000000,46626734.000000
15194306.000000,46539687.000000
15203101.000000,46535205.000000
15370588.000000,46432568.000000
15379543.000000,46422670.000000
20144303.000000,46422670.000000
20150030.000000,46430320.000000
20321185.000000,46535205.000000
20329980.000000,46539687.000000
20540131.000000,46626734.000000
20549516.000000,46629783.000000
20770697.000000,46682885.000000
20780444.000000,46684428.000000
21007213.000000,46702275.000000
21017073.000000,46702275.000000
21243842.000000,46684428.000000
21253589.000000,46682885.000000
21474770.000000,46629783.000000
21484155.000000,46626734.000000
21694306.000000,46539687.000000
21703101.000000,46535205.000000
21870588.000000,46432568.000000
21880050.000000,46422110.000000
21876267.000000,46413334.000000
21024955.000000,45562022.000000
21011011.000000,45554408.000000
21009178.000000,45554539.000000
21002563.000000,45558790.000000
20151063.000000,46410290.000000
20144303.000000,46422670.000000
15379543.000000,46422670.000000
15380050.000000,46422110.000000
15376267.000000,46413334.000000
14524955.000000,45562022.000000
14511011.000000,45554408.000000
14509178.000000,45554539.000000
14502563.000000,45558790.000000
13651063.000000,46410290.000000
13644303.000000,46422670.000000
11438637.000000,46422670.000000
11498211.000000,46213534.000000
11499387.000000,46209406.000000
11539894.000000,45924784.000000
11539988.000000,45906951.000000
11541378.000000,45641583.000000
11541378.000000,45641576.000000
11541400.000000,45637297.000000
11530488.000000,45554408.000000
11504435.000000,45356522.000000
11503875.000000,45352266.000000
11460833.000000,45194930.000000
12999868.000000,45194930.000000
13017715.000000,45421699.000000
13019258.000000,45431446.000000
13072360.000000,45652627.000000
13075409.000000,45662012.000000
13162456.000000,45872163.000000
13166938.000000,45880958.000000
13269575.000000,46048445.000000
13280033.000000,46057907.000000
13288809.000000,46054124.000000
14140121.000000,45202812.000000
14146499.000000,45191132.000000
14876551.000000,45191132.000000
14876682.000000,45192965.000000
14880933.000000,45199580.000000
15732433.000000,46051080.000000
15744813.000000,46057840.000000
15752463.000000,46052113.000000
15857348.000000,45880958.000000
15861830.000000,45872163.000000
15948877.000000,45662012.000000
15951926.000000,45652627.000000
16005028.000000,45431446.000000
16006571.000000,45421699.000000
16024418.000000,45194930.000000
19499868.000000,45194930.000000
19517715.000000,45421699.000000
19519258.000000,45431446.000000
19572360.000000,45652627.000000
19575409.000000,45662012.000000
19662456.000000,45872163.000000
19666938.000000,45880958.000000
19769575.000000,46048445.000000
19780033.000000,46057907.000000
19788809.000000,46054124.000000
20640121.000000,45202812.000000
20646499.000000,45191132.000000
21376551.000000,45191132.000000
21376682.000000,45192965.000000
21380933.000000,45199580.000000
22232433.000000,46051080.000000
22244813.000000,46057840.000000
22252463.000000,46052113.000000
22344023.000000,45902703.000000
27642886.000000,45902703.000000
27680411.000000,46187734.000000
27756272.000000,46465036.000000
27757956.000000,46468984.000000
27857464.000000,46702275.000000
27869066.000000,46729476.000000
28016704.000000,46976161.000000
28196456.000000,47200528.000000
28404994.000000,47398423.000000
28638460.000000,47566186.000000
28642255.000000,47568195.000000
28642256.000000,47568196.000000
28664012.000000,47579715.000000
28892535.000000,47700712.000000
29162516.000000,47799511.000000
29443407.000000,47860755.000000
29471984.000000,47863004.000000
29666425.000000,47878307.000000
29666434.000000,47878307.000000
29668882.000000,47878500.000000
29824414.000000,47878500.000000
29826550.000000,47878354.000000
29826561.000000,47878354.000000
30034691.000000,47864165.000000
30034697.000000,47864164.000000
30038968.000000,47863873.000000
30043163.000000,47863004.000000
30043165.000000,47863004.000000
30179727.000000,47834723.000000
30320485.000000,47805574.000000
30591486.000000,47709607.000000
30846955.000000,47577750.000000
30850456.000000,47575289.000000
30850460.000000,47575287.000000
30964561.000000,47495095.000000
31082166.000000,47412441.000000
31292765.000000,47216740.000000
31474856.000000,46994268.000000
31625070.000000,46749142.000000
31653478.000000,46684428.000000
31738900.000000,46489830.000000
31740626.000000,46485898.000000
31755818.000000,46432568.000000
31818211.000000,46213534.000000
31819387.000000,46209406.000000
31859894.000000,45924784.000000
31859988.000000,45906951.000000
31861378.000000,45641583.000000
31861378.000000,45641576.000000
31861400.000000,45637297.000000
31850488.000000,45554408.000000
31824435.000000,45356522.000000
31823875.000000,45352266.000000
31748014.000000,45074964.000000
31641647.000000,44825592.000000
31636906.000000,44814476.000000
31636904.000000,44814472.000000
31635220.000000,44810524.000000
31487582.000000,44563839.000000
31307830.000000,44339472.000000
31099292.000000,44141577.000000
30865826.000000,43973814.000000
30843986.000000,43962250.000000
30815999.000000,43947432.000000
30611751.000000,43839288.000000
30341770.000000,43740489.000000
30060879.000000,43679245.000000
30029828.000000,43676801.000000
29837861.000000,43661693.000000
29837852.000000,43661693.000000
29835404.000000,43661500.000000
29679872.000000,43661500.000000
29677736.000000,43661646.000000
29677725.000000,43661646.000000
29469595.000000,43675835.000000
29469589.000000,43675836.000000
29465318.000000,43676127.000000
29461123.000000,43676996.000000
29461121.000000,43676996.000000
29371421.000000,43695572.000000
29183801.000000,43734426.000000
28912800.000000,43830393.000000
28657331.000000,43962250.000000
28653830.000000,43964711.000000
28653826.000000,43964713.000000
28646716.000000,43969710.000000
28422120.000000,44127559.000000
28211521.000000,44323260.000000
28029430.000000,44545732.000000
27879216.000000,44790858.000000
27763660.000000,45054102.000000
27684899.000000,45330594.000000
27644392.000000,45615216.000000
27644370.000000,45619505.000000
27644369.000000,45619512.000000
27642908.000000,45898417.000000
27642886.000000,45902703.000000
22344023.000000,45902703.000000
22357348.000000,45880958.000000
22361830.000000,45872163.000000
22448877.000000,45662012.000000
22451926.000000,45652627.000000
22505028.000000,45431446.000000
22506571.000000,45421699.000000
22524418.000000,45194930.000000
22524418.000000,45185070.000000
22506571.000000,44958301.000000
22505028.000000,44948554.000000
22451926.000000,44727373.000000
22448877.000000,44717988.000000
22361830.000000,44507837.000000
22357348.000000,44499042.000000
22254711.000000,44331555.000000
22244253.000000,44322093.000000
22235477.000000,44325876.000000
21384165.000000,45177188.000000
21376551.000000,45191132.000000
20646499.000000,45191132.000000
20647735.000000,45188868.000000
20647604.000000,45187035.000000
20643353.000000,45180420.000000
19791853.000000,44328920.000000
19779473.000000,44322160.000000
19771823.000000,44327887.000000
19666938.000000,44499042.000000
19662456.000000,44507837.000000
19575409.000000,44717988.000000
19572360.000000,44727373.000000
19519258.000000,44948554.000000
19517715.000000,44958301.000000
19499868.000000,45185070.000000
19499868.000000,45194930.000000
16024418.000000,45194930.000000
16024418.000000,45185070.000000
16006571.000000,44958301.000000
16005028.000000,44948554.000000
15951926.000000,44727373.000000
15948877.000000,44717988.000000
15861830.000000,44507837.000000
15857348.000000,44499042.000000
15754711.000000,44331555.000000
15744253.000000,44322093.000000
15735477.000000,44325876.000000
14884165.000000,45177188.000000
14876551.000000,45191132.000000
14146499.000000,45191132.000000
14147735.000000,45188868.000000
14147604.000000,45187035.000000
14143353.000000,45180420.000000
13291853.000000,44328920.000000
13279473.000000,44322160.000000
13271823.000000,44327887.000000
13166938.000000,44499042.000000
13162456.000000,44507837.000000
13075409.000000,44717988.000000
13072360.000000,44727373.000000
13019258.000000,44948554.000000
13017715.000000,44958301.000000
12999868.000000,45185070.000000
12999868.000000,45194930.000000
11460833.000000,45194930.000000
11428014.000000,45074964.000000
11321647.000000,44825592.000000
11316906.000000,44814476.000000
11316904.000000,44814472.000000
11315220.000000,44810524.000000
11167582.000000,44563839.000000
10987830.000000,44339472.000000
10779292.000000,44141577.000000
10545826.000000,43973814.000000
10523986.000000,43962250.000000
10515751.000000,43957890.000000
13644236.000000,43957890.000000
13648019.000000,43966666.000000
14499331.000000,44817978.000000
14513275.000000,44825592.000000
14515108.000000,44825461.000000
14521723.000000,44821210.000000
15373223.000000,43969710.000000
15379677.000000,43957890.000000
20144236.000000,43957890.000000
20148019.000000,43966666.000000
20999331.000000,44817978.000000
21013275.000000,44825592.000000
21015108.000000,44825461.000000
21021723.000000,44821210.000000
21873223.000000,43969710.000000
21879983.000000,43957330.000000
21874256.000000,43949680.000000
21703101.000000,43844795.000000
21694306.000000,43840313.000000
21484155.000000,43753266.000000
21474770.000000,43750217.000000
21253589.000000,43697115.000000
21243842.000000,43695572.000000
21017073.000000,43677725.000000
21007213.000000,43677725.000000
20780444.000000,43695572.000000
20770697.000000,43697115.000000
20549516.000000,43750217.000000
20540131.000000,43753266.000000
20329980.000000,43840313.000000
20321185.000000,43844795.000000
20153698.000000,43947432.000000
20144236.000000,43957890.000000
15379677.000000,43957890.000000
15379983.000000,43957330.000000
15374256.000000,43949680.000000
15203101.000000,43844795.000000
15194306.000000,43840313.000000
14984155.000000,43753266.000000
14974770.000000,43750217.000000
14753589.000000,43697115.000000
14743842.000000,43695572.000000
14517073.000000,43677725.000000
14507213.000000,43677725.000000
14280444.000000,43695572.000000
14270697.000000,43697115.000000
14049516.000000,43750217.000000
14040131.000000,43753266.000000
13829980.000000,43840313.000000
13821185.000000,43844795.000000
13653698.000000,43947432.000000
13644236.000000,43957890.000000
10515751.000000,43957890.000000
10495999.000000,43947432.000000
10291751.000000,43839288.000000
10021770.000000,43740489.000000
9740879.000000,43679245.000000
9709828.000000,43676801.000000
9517861.000000,43661693.000000
9517852.000000,43661693.000000
9515404.000000,43661500.000000
9359872.000000,43661500.000000
9357736.000000,43661646.000000
9357725.000000,43661646.000000
9149595.000000,43675835.000000
9149589.000000,43675836.000000
9145318.000000,43676127.000000
9141123.000000,43676996.000000
9141121.000000,43676996.000000
9051421.000000,43695572.000000
8863801.000000,43734426.000000
8592800.000000,43830393.000000
8337331.000000,43962250.000000
8333830.000000,43964711.000000
8333826.000000,43964713.000000
8326716.000000,43969710.000000
8102120.000000,44127559.000000
7891521.000000,44323260.000000
7709430.000000,44545732.000000
7559216.000000,44790858.000000
7443660.000000,45054102.000000
7364899.000000,45330594.000000
7324392.000000,45615216.000000
7324370.000000,45619505.000000
7324369.000000,45619512.000000
7322908.000000,45898417.000000
7322886.000000,45902703.000000
6352643.000000,45902703.000000
6352643.000000,40690000.000000
12998978.000000,40690000.000000
13017608.000000,40926711.000000
13073038.000000,41157594.000000
13163903.000000,41376963.000000
13166489.000000,41381183.000000
13285384.000000,41575202.000000
13285388.000000,41575208.000000
13287967.000000,41579416.000000
13442174.000000,41759969.000000
13622727.000000,41914176.000000
13626935.000000,41916755.000000
13626941.000000,41916759.000000
13820960.000000,42035654.000000
13825180.000000,42038240.000000
13829750.000000,42040133.000000
13829754.000000,42040135.000000
14039976.000000,42127211.000000
14044549.000000,42129105.000000
14124752.000000,42148360.000000
14270619.000000,42183380.000000
14270625.000000,42183381.000000
14275432.000000,42184535.000000
14512143.000000,42203165.000000
14748854.000000,42184535.000000
14753661.000000,42183381.000000
14753667.000000,42183380.000000
14899534.000000,42148360.000000
14979737.000000,42129105.000000
14984310.000000,42127211.000000
15194532.000000,42040135.000000
15194536.000000,42040133.000000
15199106.000000,42038240.000000
15203326.000000,42035654.000000
15397345.000000,41916759.000000
15397351.000000,41916755.000000
15401559.000000,41914176.000000
15582112.000000,41759969.000000
15736319.000000,41579416.000000
15779676.000000,41508664.000000
15832324.000000,41461033.000000
15887108.000000,41448500.000000
19637178.000000,41448500.000000
19705299.000000,41468502.000000
19744609.000000,41508663.000000
19787967.000000,41579416.000000
19942174.000000,41759969.000000
20122727.000000,41914176.000000
20126935.000000,41916755.000000
20126941.000000,41916759.000000
20320960.000000,42035654.000000
20325180.000000,42038240.000000
20329750.000000,42040133.000000
20329754.000000,42040135.000000
20539976.000000,42127211.000000
20544549.000000,42129105.000000
20624752.000000,42148360.000000
20770619.000000,42183380.000000
20770625.000000,42183381.000000
20775432.000000,42184535.000000
21012143.000000,42203165.000000
21248854.000000,42184535.000000
21253661.000000,42183381.000000
21253667.000000,42183380.000000
21399534.000000,42148360.000000
21479737.000000,42129105.000000
21484310.000000,42127211.000000
21694532.000000,42040135.000000
21694536.000000,42040133.000000
21699106.000000,42038240.000000
21703326.000000,42035654.000000
21897345.000000,41916759.000000
21897351.000000,41916755.000000
21901559.000000,41914176.000000
22082112.000000,41759969.000000
22236319.000000,41579416.000000
22238898.000000,41575208.000000
22238902.000000,41575202.000000
22357797.000000,41381183.000000
22360383.000000,41376963.000000
22451248.000000,41157594.000000
22506678.000000,40926711.000000
22525308.000000,40690000.000000
22506678.000000,40453289.000000
22505524.000000,40448482.000000
22505523.000000,40448476.000000
22487307.000000,40372602.000000
22490854.000000,40301694.000000
22520731.000000,40254093.000000
25161054.000000,37613770.000000
25175466.000000,37601384.000000
25187061.000000,37592851.000000
25187066.000000,37592846.000000
25192961.000000,37588508.000000
25197700.000000,37582930.000000
25197703.000000,37582927.000000
25227178.000000,37548232.000000
25234108.000000,37540716.000000
25239804.000000,37535020.000000
25242067.000000,37532159.000000
25242072.000000,37532154.000000
25257428.000000,37512744.000000
25260217.000000,37509342.000000
25302739.000000,37459291.000000
25302740.000000,37459290.000000
25307476.000000,37453715.000000
25310804.000000,37447198.000000
25314170.000000,37442150.000000
25317333.000000,37437028.000000
25321878.000000,37431284.000000
25352807.000000,37365105.000000
25354706.000000,37361221.000000
25387912.000000,37296192.000000
25389653.000000,37289077.000000
25391756.000000,37283422.000000
25393665.000000,37277683.000000
25396765.000000,37271050.000000
25411634.000000,37199565.000000
25412604.000000,37195282.000000
25428616.000000,37129844.000000
25429951.000000,37124390.000000
25430643.000000,37113236.000000
25430678.000000,37113238.000000
25430918.000000,37109266.000000
25431295.000000,37105045.000000
25432784.000000,37097885.000000
25430689.000000,37020458.000000
25430643.000000,37017050.000000
25430643.000000,20736371.000000
25450645.000000,20668250.000000
25467548.000000,20647276.000000
28187273.000000,17927551.000000
28249585.000000,17893525.000000
28320400.000000,17898590.000000
28377236.000000,17941137.000000
28402159.000000,18009394.000000
28402452.000000,18014477.000000
28403888.000000,18024697.000000
28450708.000000,18232446.000000
28453788.000000,18242275.000000
28533913.000000,18439603.000000
28538556.000000,18448794.000000
28649837.000000,18630388.000000
28655920.000000,18638699.000000
28795356.000000,18799667.000000
28802723.000000,18806883.000000
28966577.000000,18942916.000000
28975024.000000,18948831.000000
29158899.000000,19056279.000000
29168185.000000,19060729.000000
29367144.000000,19136703.000000
29377042.000000,19139579.000000
29480393.000000,19160606.000000
29494442.000000,19159410.000000
29498143.000000,19149065.000000
29498143.000000,19148517.000000
30006143.000000,19148517.000000
30010207.000000,19162359.000000
30023621.000000,19164393.000000
30030327.000000,19163534.000000
30040405.000000,19161392.000000
30244398.000000,19100191.000000
30253985.000000,19096433.000000
30445238.000000,19002739.000000
30454088.000000,18997464.000000
30627471.000000,18873792.000000
30635343.000000,18867139.000000
30786195.000000,18716812.000000
30792873.000000,18708965.000000
30917146.000000,18536020.000000
30922456.000000,18527183.000000
31016813.000000,18336267.000000
31020612.000000,18326672.000000
31082520.000000,18122910.000000
31084698.000000,18112837.000000
31086129.000000,18101962.000000
31083918.000000,18087778.000000
31070760.000000,18084000.000000
30024258.000000,18084000.000000
30009019.000000,18088475.000000
30007814.000000,18089865.000000
30006143.000000,18097548.000000
30006143.000000,19148517.000000
29498143.000000,19148517.000000
29498143.000000,17702000.000000
29518145.000000,17633879.000000
29571801.000000,17587386.000000
29624143.000000,17576000.000000
31070487.000000,17576000.000000
31084018.000000,17572027.000000
31085323.000000,17562947.000000
31043357.000000,17395875.000000
31040037.000000,17386124.000000
30955115.000000,17190814.000000
30950248.000000,17181739.000000
30834569.000000,17002926.000000
30828279.000000,16994757.000000
30684949.000000,16837240.000000
30677416.000000,16830215.000000
30510282.000000,16698222.000000
30501699.000000,16692520.000000
30464745.000000,16672120.000000
30414774.000000,16621687.000000
30400002.000000,16552245.000000
30425118.000000,16485839.000000
30452470.000000,16459232.000000
30475940.000000,16442491.000000
30632003.000000,16331173.000000
30790239.000000,16173489.000000
30807274.000000,16149783.000000
30917578.000000,15996277.000000
30920596.000000,15992077.000000
30940123.000000,15952568.000000
31017279.000000,15796453.000000
31017280.000000,15796451.000000
31019573.000000,15791811.000000
31084513.000000,15578069.000000
31113672.000000,15356590.000000
31115299.000000,15290000.000000
31096995.000000,15067361.000000
31042574.000000,14850702.000000
30953497.000000,14645840.000000
30845111.000000,14478301.000000
30834965.000000,14462617.000000
30834963.000000,14462614.000000
30832157.000000,14458277.000000
30681813.000000,14293051.000000
30677762.000000,14289852.000000
30677758.000000,14289848.000000
30510557.000000,14157800.000000
30510553.000000,14157798.000000
30506502.000000,14154598.000000
30465196.000000,14131796.000000
30415227.000000,14081364.000000
30400455.000000,14011921.000000
30425571.000000,13945516.000000
30452923.000000,13918909.000000
30552492.000000,13847887.000000
30632003.000000,13791173.000000
30790239.000000,13633489.000000
30920596.000000,13452077.000000
30965949.000000,13360313.000000
31017279.000000,13256453.000000
31017280.000000,13256451.000000
31019573.000000,13251811.000000
31084513.000000,13038069.000000
31113672.000000,12816590.000000
31115299.000000,12750000.000000
31096995.000000,12527361.000000
31042574.000000,12310702.000000
30953497.000000,12105840.000000
30832157.000000,11918277.000000
30828675.000000,11914450.000000
30684941.000000,11756488.000000
30653889.000000,11692642.000000
30662284.000000,11622143.000000
30707460.000000,11567375.000000
30733904.000000,11553706.000000
30840440.000000,11513767.000000
30848848.000000,11510615.000000
30965404.000000,11423261.000000
31052758.000000,11306705.000000
31103888.000000,11170316.000000
31110643.000000,11108134.000000
31110643.000000,9311866.000000
31103888.000000,9249684.000000
31052758.000000,9113295.000000
30965404.000000,8996739.000000
30848848.000000,8909385.000000
30712459.000000,8858255.000000
30650277.000000,8851500.000000
28854009.000000,8851500.000000
28791827.000000,8858255.000000
28655438.000000,8909385.000000
28538882.000000,8996739.000000
28451528.000000,9113295.000000
28400398.000000,9249684.000000
28393643.000000,9311866.000000
28393643.000000,9325500.000000
28373641.000000,9393621.000000
28319985.000000,9440114.000000
28267643.000000,9451500.000000
22387108.000000,9451500.000000
22318987.000000,9431498.000000
22279676.000000,9391336.000000
22236319.000000,9320584.000000
22082112.000000,9140031.000000
21901559.000000,8985824.000000
21897351.000000,8983245.000000
21897345.000000,8983241.000000
21703326.000000,8864346.000000
21699106.000000,8861760.000000
21694536.000000,8859867.000000
21694532.000000,8859865.000000
21484310.000000,8772789.000000
21484308.000000,8772788.000000
21479737.000000,8770895.000000
21399534.000000,8751640.000000
21253667.000000,8716620.000000
21253661.000000,8716619.000000
21248854.000000,8715465.000000
21012143.000000,8696835.000000
20775432.000000,8715465.000000
20770625.000000,8716619.000000
20770619.000000,8716620.000000
20624752.000000,8751640.000000
20544549.000000,8770895.000000
20539978.000000,8772788.000000
20539976.000000,8772789.000000
20329754.000000,8859865.000000
20329750.000000,8859867.000000
20325180.000000,8861760.000000
20320960.000000,8864346.000000
20126941.000000,8983241.000000
20126935.000000,8983245.000000
20122727.000000,8985824.000000
19942174.000000,9140031.000000
19787967.000000,9320584.000000
19744610.000000,9391336.000000
19691962.000000,9438967.000000
19637178.000000,9451500.000000
15887108.000000,9451500.000000
15818987.000000,9431498.000000
15779676.000000,9391336.000000
15736319.000000,9320584.000000
15582112.000000,9140031.000000
15401559.000000,8985824.000000
15397351.000000,8983245.000000
15397345.000000,8983241.000000
15203326.000000,8864346.000000
15199106.000000,8861760.000000
15194536.000000,8859867.000000
15194532.000000,8859865.000000
14984310.000000,8772789.000000
14984308.000000,8772788.000000
14979737.000000,8770895.000000
14899534.000000,8751640.000000
14753667.000000,8716620.000000
14753661.000000,8716619.000000
14748854.000000,8715465.000000
14512143.000000,8696835.000000
14275432.000000,8715465.000000
14270625.000000,8716619.000000
14270619.000000,8716620.000000
14124752.000000,8751640.000000
14044549.000000,8770895.000000
14039978.000000,8772788.000000
14039976.000000,8772789.000000
13829754.000000,8859865.000000
13829750.000000,8859867.000000
13825180.000000,8861760.000000
13820960.000000,8864346.000000
13626941.000000,8983241.000000
13626935.000000,8983245.000000
13622727.000000,8985824.000000
13442174.000000,9140031.000000
13287967.000000,9320584.000000
13285388.000000,9324792.000000
13285384.000000,9324798.000000
13207741.000000,9451500.000000
13163903.000000,9523037.000000
13073038.000000,9742406.000000
13017608.000000,9973289.000000
12998978.000000,10210000.000000
13017608.000000,10446711.000000
13073038.000000,10677594.000000
13163903.000000,10896963.000000
13166489.000000,10901183.000000
13285384.000000,11095202.000000
13285388.000000,11095208.000000
13287967.000000,11099416.000000
13442174.000000,11279969.000000
13622727.000000,11434176.000000
13626935.000000,11436755.000000
13626941.000000,11436759.000000
13817781.000000,11553706.000000
13825180.000000,11558240.000000
13829750.000000,11560133.000000
13829754.000000,11560135.000000
14039976.000000,11647211.000000
14044549.000000,11649105.000000
14105500.000000,11663738.000000
14270619.000000,11703380.000000
14270625.000000,11703381.000000
14275432.000000,11704535.000000
14512143.000000,11723165.000000
14748854.000000,11704535.000000
14753661.000000,11703381.000000
14753667.000000,11703380.000000
14918786.000000,11663738.000000
14979737.000000,11649105.000000
14984310.000000,11647211.000000
15194532.000000,11560135.000000
15194536.000000,11560133.000000
15199106.000000,11558240.000000
15206505.000000,11553706.000000
15397345.000000,11436759.000000
15397351.000000,11436755.000000
15401559.000000,11434176.000000
15582112.000000,11279969.000000
15736319.000000,11099416.000000
15779676.000000,11028664.000000
15832324.000000,10981033.000000
15887108.000000,10968500.000000
19637178.000000,10968500.000000
19705299.000000,10988502.000000
19744609.000000,11028663.000000
19787967.000000,11099416.000000
19942174.000000,11279969.000000
20122727.000000,11434176.000000
20126935.000000,11436755.000000
20126941.000000,11436759.000000
20317781.000000,11553706.000000
20325180.000000,11558240.000000
20329750.000000,11560133.000000
20329754.000000,11560135.000000
20539976.000000,11647211.000000
20544549.000000,11649105.000000
20605500.000000,11663738.000000
20770619.000000,11703380.000000
20770625.000000,11703381.000000
20775432.000000,11704535.000000
21012143.000000,11723165.000000
21248854.000000,11704535.000000
21253661.000000,11703381.000000
21253667.000000,11703380.000000
21418786.000000,11663738.000000
21479737.000000,11649105.000000
21484310.000000,11647211.000000
21694532.000000,11560135.000000
21694536.000000,11560133.000000
21699106.000000,11558240.000000
21706505.000000,11553706.000000
21897345.000000,11436759.000000
21897351.000000,11436755.000000
21901559.000000,11434176.000000
22082112.000000,11279969.000000
22236319.000000,11099416.000000
22279676.000000,11028664.000000
22332324.000000,10981033.000000
22387108.000000,10968500.000000
28267643.000000,10968500.000000
28335764.000000,10988502.000000
28382257.000000,11042158.000000
28393643.000000,11094500.000000
28393643.000000,11108134.000000
28400398.000000,11170316.000000
28451528.000000,11306705.000000
28538882.000000,11423261.000000
28655438.000000,11510615.000000
28663847.000000,11513767.000000
28663848.000000,11513768.000000
28772594.000000,11554535.000000
28829359.000000,11597176.000000
28854059.000000,11663738.000000
28838852.000000,11733087.000000
28819459.000000,11759568.000000
28692772.000000,11892138.000000
28566886.000000,12076680.000000
28472831.000000,12279305.000000
28413132.000000,12494570.000000
28389394.000000,12716695.000000
28402253.000000,12939715.000000
28403390.000000,12944760.000000
28404109.000000,12949877.000000
28402661.000000,12950081.000000
28398541.000000,13014274.000000
28369262.000000,13060200.000000
20523232.000000,20906230.000000
20508820.000000,20918616.000000
20497225.000000,20927149.000000
20497220.000000,20927154.000000
20491325.000000,20931492.000000
20486586.000000,20937070.000000
20486583.000000,20937073.000000
20457108.000000,20971768.000000
20450178.000000,20979284.000000
20444483.000000,20984979.000000
20442203.000000,20987861.000000
20426862.000000,21007251.000000
20424071.000000,21010655.000000
20381552.000000,21060703.000000
20376810.000000,21066285.000000
20373482.000000,21072801.000000
20370115.000000,21077850.000000
20366948.000000,21082979.000000
20362409.000000,21088716.000000
20331488.000000,21154875.000000
20329585.000000,21158769.000000
20296374.000000,21223808.000000
20294635.000000,21230916.000000
20292536.000000,21236559.000000
20290619.000000,21242322.000000
20287521.000000,21248950.000000
20286031.000000,21256112.000000
20286031.000000,21256113.000000
20272657.000000,21320412.000000
20271687.000000,21324696.000000
20254335.000000,21395610.000000
20253643.000000,21406764.000000
20253607.000000,21406762.000000
20253368.000000,21410755.000000
20252994.000000,21414947.000000
20251503.000000,21422115.000000
20251701.000000,21429432.000000
20253597.000000,21499521.000000
20253643.000000,21502928.000000
20253643.000000,24075035.000000
20233641.000000,24143156.000000
20193480.000000,24182466.000000
20122727.000000,24225824.000000
19942174.000000,24380031.000000
19787967.000000,24560584.000000
19744610.000000,24631336.000000
19691962.000000,24678967.000000
19637178.000000,24691500.000000
15887108.000000,24691500.000000
15818987.000000,24671498.000000
15779676.000000,24631336.000000
15736319.000000,24560584.000000
15582112.000000,24380031.000000
15401559.000000,24225824.000000
15397351.000000,24223245.000000
15397345.000000,24223241.000000
15203326.000000,24104346.000000
15199106.000000,24101760.000000
15194536.000000,24099867.000000
15194532.000000,24099865.000000
14984310.000000,24012789.000000
14984308.000000,24012788.000000
14979737.000000,24010895.000000
14899534.000000,23991640.000000
14753667.000000,23956620.000000
14753661.000000,23956619.000000
14748854.000000,23955465.000000
14512143.000000,23936835.000000
14275432.000000,23955465.000000
14270625.000000,23956619.000000
14270619.000000,23956620.000000
14124752.000000,23991640.000000
14044549.000000,24010895.000000
14039978.000000,24012788.000000
14039976.000000,24012789.000000
13829754.000000,24099865.000000
13829750.000000,24099867.000000
13825180.000000,24101760.000000
13820960.000000,24104346.000000
13626941.000000,24223241.000000
13626935.000000,24223245.000000
13622727.000000,24225824.000000
13442174.000000,24380031.000000
13287967.000000,24560584.000000
13285388.000000,24564792.000000
13285384.000000,24564798.000000
13219998.000000,24671498.000000
13163903.000000,24763037.000000
13073038.000000,24982406.000000
13017608.000000,25213289.000000
12998978.000000,25450000.000000
13017608.000000,25686711.000000
13073038.000000,25917594.000000
13163903.000000,26136963.000000
13166489.000000,26141183.000000
13285384.000000,26335202.000000
13285388.000000,26335208.000000
13287967.000000,26339416.000000
13442174.000000,26519969.000000
13622727.000000,26674176.000000
13626935.000000,26676755.000000
13626941.000000,26676759.000000
13820960.000000,26795654.000000
13825180.000000,26798240.000000
13829750.000000,26800133.000000
13829754.000000,26800135.000000
14039976.000000,26887211.000000
14044549.000000,26889105.000000
14124752.000000,26908360.000000
14270619.000000,26943380.000000
14270625.000000,26943381.000000
14275432.000000,26944535.000000
14512143.000000,26963165.000000
14748854.000000,26944535.000000
14753661.000000,26943381.000000
14753667.000000,26943380.000000
14899534.000000,26908360.000000
14979737.000000,26889105.000000
14984310.000000,26887211.000000
15194532.000000,26800135.000000
15194536.000000,26800133.000000
15199106.000000,26798240.000000
15203326.000000,26795654.000000
15397345.000000,26676759.000000
15397351.000000,26676755.000000
15401559.000000,26674176.000000
15582112.000000,26519969.000000
15736319.000000,26339416.000000
15779676.000000,26268664.000000
15832324.000000,26221033.000000
15887108.000000,26208500.000000
19637178.000000,26208500.000000
19705299.000000,26228502.000000
19744609.000000,26268663.000000
19787967.000000,26339416.000000
19942174.000000,26519969.000000
20122727.000000,26674176.000000
20126935.000000,26676755.000000
20126941.000000,26676759.000000
20320960.000000,26795654.000000
20325180.000000,26798240.000000
20329750.000000,26800133.000000
20329754.000000,26800135.000000
20539976.000000,26887211.000000
20544549.000000,26889105.000000
20624752.000000,26908360.000000
20770619.000000,26943380.000000
20770625.000000,26943381.000000
20775432.000000,26944535.000000
21012143.000000,26963165.000000
21248854.000000,26944535.000000
21253661.000000,26943381.000000
21253667.000000,26943380.000000
21399534.000000,26908360.000000
21479737.000000,26889105.000000
21484310.000000,26887211.000000
21694532.000000,26800135.000000
21694536.000000,26800133.000000
21699106.000000,26798240.000000
21703326.000000,26795654.000000
21897345.000000,26676759.000000
21897351.000000,26676755.000000
21901559.000000,26674176.000000
22082112.000000,26519969.000000
22236319.000000,26339416.000000
22238898.000000,26335208.000000
22238902.000000,26335202.000000
22357797.000000,26141183.000000
22360383.000000,26136963.000000
22451248.000000,25917594.000000
22506678.000000,25686711.000000
22525308.000000,25450000.000000
22506678.000000,25213289.000000
22451248.000000,24982406.000000
22360383.000000,24763037.000000
22304288.000000,24671498.000000
22238902.000000,24564798.000000
22238898.000000,24564792.000000
22236319.000000,24560584.000000
22082112.000000,24380031.000000
21901559.000000,24225824.000000
21830807.000000,24182467.000000
21783176.000000,24129819.000000
21770643.000000,24075035.000000
21770643.000000,21856371.000000
21790645.000000,21788250.000000
21807548.000000,21767276.000000
28186799.000000,15388025.000000
28249111.000000,15353999.000000
28319926.000000,15359064.000000
28376762.000000,15401611.000000
28401685.000000,15469865.000000
28402253.000000,15479715.000000
28403390.000000,15484760.000000
28404109.000000,15489877.000000
28402661.000000,15490081.000000
28398541.000000,15554274.000000
28369262.000000,15600200.000000
24183232.000000,19786230.000000
24168820.000000,19798616.000000
24157225.000000,19807149.000000
24157220.000000,19807154.000000
24151325.000000,19811492.000000
24146586.000000,19817070.000000
24146583.000000,19817073.000000
24117108.000000,19851768.000000
24110178.000000,19859284.000000
24104483.000000,19864979.000000
24102203.000000,19867861.000000
24086862.000000,19887251.000000
24084071.000000,19890655.000000
24041552.000000,19940703.000000
24036810.000000,19946285.000000
24033482.000000,19952801.000000
24030115.000000,19957850.000000
24026948.000000,19962979.000000
24022409.000000,19968716.000000
23991488.000000,20034875.000000
23989585.000000,20038769.000000
23956374.000000,20103808.000000
23954635.000000,20110916.000000
23952536.000000,20116559.000000
23950619.000000,20122322.000000
23947521.000000,20128950.000000
23946031.000000,20136112.000000
23946031.000000,20136113.000000
23932657.000000,20200412.000000
23931687.000000,20204696.000000
23914335.000000,20275610.000000
23913643.000000,20286764.000000
23913607.000000,20286762.000000
23913368.000000,20290755.000000
23912994.000000,20294947.000000
23911503.000000,20302115.000000
23911701.000000,20309432.000000
23913597.000000,20379521.000000
23913643.000000,20382928.000000
23913643.000000,36663630.000000
23893641.000000,36731751.000000
23876738.000000,36752725.000000
21448051.000000,39181412.000000
21385739.000000,39215438.000000
21329543.000000,39214836.000000
21253670.000000,39196621.000000
21253667.000000,39196621.000000
21248854.000000,39195465.000000
21012143.000000,39176835.000000
20775432.000000,39195465.000000
20770625.000000,39196619.000000
20770619.000000,39196620.000000
20626131.000000,39231309.000000
20544549.000000,39250895.000000
20539978.000000,39252788.000000
20539976.000000,39252789.000000
20329754.000000,39339865.000000
20329750.000000,39339867.000000
20325180.000000,39341760.000000
20320960.000000,39344346.000000
20126941.000000,39463241.000000
20126935.000000,39463245.000000
20122727.000000,39465824.000000
19942174.000000,39620031.000000
19787967.000000,39800584.000000
19744610.000000,39871336.000000
19691962.000000,39918967.000000
19637178.000000,39931500.000000
15887108.000000,39931500.000000
15818987.000000,39911498.000000
15779676.000000,39871336.000000
15736319.000000,39800584.000000
15582112.000000,39620031.000000
15401559.000000,39465824.000000
15397351.000000,39463245.000000
15397345.000000,39463241.000000
15203326.000000,39344346.000000
15199106.000000,39341760.000000
15194536.000000,39339867.000000
15194532.000000,39339865.000000
14984310.000000,39252789.000000
14984308.000000,39252788.000000
14979737.000000,39250895.000000
14898155.000000,39231309.000000
14753667.000000,39196620.000000
14753661.000000,39196619.000000
14748854.000000,39195465.000000
14512143.000000,39176835.000000
14275432.000000,39195465.000000
14270625.000000,39196619.000000
14270619.000000,39196620.000000
14126131.000000,39231309.000000
14044549.000000,39250895.000000
14039978.000000,39252788.000000
14039976.000000,39252789.000000
13829754.000000,39339865.000000
13829750.000000,39339867.000000
13825180.000000,39341760.000000
13820960.000000,39344346.000000
13626941.000000,39463241.000000
13626935.000000,39463245.000000
13622727.000000,39465824.000000
13442174.000000,39620031.000000
13287967.000000,39800584.000000
13285388.000000,39804792.000000
13285384.000000,39804798.000000
13219998.000000,39911498.000000
13163903.000000,40003037.000000
13073038.000000,40222406.000000
13017608.000000,40453289.000000
12998978.000000,40690000.000000
6352643.000000,40690000.000000
6352643.000000,31182670.000000
13644303.000000,31182670.000000
13650030.000000,31190320.000000
13821185.000000,31295205.000000
13829980.000000,31299687.000000
14040131.000000,31386734.000000
14049516.000000,31389783.000000
14270697.000000,31442885.000000
14280444.000000,31444428.000000
14507213.000000,31462275.000000
14517073.000000,31462275.000000
14743842.000000,31444428.000000
14753589.000000,31442885.000000
14974770.000000,31389783.000000
14984155.000000,31386734.000000
15194306.000000,31299687.000000
15203101.000000,31295205.000000
15370588.000000,31192568.000000
15379543.000000,31182670.000000
20144303.000000,31182670.000000
20150030.000000,31190320.000000
20321185.000000,31295205.000000
20329980.000000,31299687.000000
20540131.000000,31386734.000000
20549516.000000,31389783.000000
20770697.000000,31442885.000000
20780444.000000,31444428.000000
21007213.000000,31462275.000000
21017073.000000,31462275.000000
21243842.000000,31444428.000000
21253589.000000,31442885.000000
21474770.000000,31389783.000000
21484155.000000,31386734.000000
21694306.000000,31299687.000000
21703101.000000,31295205.000000
21870588.000000,31192568.000000
21880050.000000,31182110.000000
21876267.000000,31173334.000000
21024955.000000,30322022.000000
21011011.000000,30314408.000000
21009178.000000,30314539.000000
21002563.000000,30318790.000000
20151063.000000,31170290.000000
20144303.000000,31182670.000000
15379543.000000,31182670.000000
15380050.000000,31182110.000000
15376267.000000,31173334.000000
14524955.000000,30322022.000000
14511011.000000,30314408.000000
14509178.000000,30314539.000000
14502563.000000,30318790.000000
13651063.000000,31170290.000000
13644303.000000,31182670.000000
6352643.000000,31182670.000000
6352643.000000,29954930.000000
12999868.000000,29954930.000000
13017715.000000,30181699.000000
13019258.000000,30191446.000000
13072360.000000,30412627.000000
13075409.000000,30422012.000000
13162456.000000,30632163.000000
13166938.000000,30640958.000000
13269575.000000,30808445.000000
13280033.000000,30817907.000000
13288809.000000,30814124.000000
14140121.000000,29962812.000000
14146499.000000,29951132.000000
14876551.000000,29951132.000000
14876682.000000,29952965.000000
14880933.000000,29959580.000000
15732433.000000,30811080.000000
15744813.000000,30817840.000000
15752463.000000,30812113.000000
15857348.000000,30640958.000000
15861830.000000,30632163.000000
15948877.000000,30422012.000000
15951926.000000,30412627.000000
16005028.000000,30191446.000000
16006571.000000,30181699.000000
16024418.000000,29954930.000000
19499868.000000,29954930.000000
19517715.000000,30181699.000000
19519258.000000,30191446.000000
19572360.000000,30412627.000000
19575409.000000,30422012.000000
19662456.000000,30632163.000000
19666938.000000,30640958.000000
19769575.000000,30808445.000000
19780033.000000,30817907.000000
19788809.000000,30814124.000000
20640121.000000,29962812.000000
20646499.000000,29951132.000000
21376551.000000,29951132.000000
21376682.000000,29952965.000000
21380933.000000,29959580.000000
22232433.000000,30811080.000000
22244813.000000,30817840.000000
22252463.000000,30812113.000000
22357348.000000,30640958.000000
22361830.000000,30632163.000000
22448877.000000,30422012.000000
22451926.000000,30412627.000000
22505028.000000,30191446.000000
22506571.000000,30181699.000000
22524418.000000,29954930.000000
22524418.000000,29945070.000000
22506571.000000,29718301.000000
22505028.000000,29708554.000000
22451926.000000,29487373.000000
22448877.000000,29477988.000000
22361830.000000,29267837.000000
22357348.000000,29259042.000000
22254711.000000,29091555.000000
22244253.000000,29082093.000000
22235477.000000,29085876.000000
21384165.000000,29937188.000000
21376551.000000,29951132.000000
20646499.000000,29951132.000000
20647735.000000,29948868.000000
20647604.000000,29947035.000000
20643353.000000,29940420.000000
19791853.000000,29088920.000000
19779473.000000,29082160.000000
19771823.000000,29087887.000000
19666938.000000,29259042.000000
19662456.000000,29267837.000000
19575409.000000,29477988.000000
19572360.000000,29487373.000000
19519258.000000,29708554.000000
19517715.000000,29718301.000000
19499868.000000,29945070.000000
19499868.000000,29954930.000000
16024418.000000,29954930.000000
16024418.000000,29945070.000000
16006571.000000,29718301.000000
16005028.000000,29708554.000000
15951926.000000,29487373.000000
15948877.000000,29477988.000000
15861830.000000,29267837.000000
15857348.000000,29259042.000000
15754711.000000,29091555.000000
15744253.000000,29082093.000000
15735477.000000,29085876.000000
14884165.000000,29937188.000000
14876551.000000,29951132.000000
14146499.000000,29951132.000000
14147735.000000,29948868.000000
14147604.000000,29947035.000000
14143353.000000,29940420.000000
13291853.000000,29088920.000000
13279473.000000,29082160.000000
13271823.000000,29087887.000000
13166938.000000,29259042.000000
13162456.000000,29267837.000000
13075409.000000,29477988.000000
13072360.000000,29487373.000000
13019258.000000,29708554.000000
13017715.000000,29718301.000000
12999868.000000,29945070.000000
12999868.000000,29954930.000000
6352643.000000,29954930.000000
6352643.000000,28717890.000000
13644236.000000,28717890.000000
13648019.000000,28726666.000000
14499331.000000,29577978.000000
14513275.000000,29585592.000000
14515108.000000,29585461.000000
14521723.000000,29581210.000000
15373223.000000,28729710.000000
15379677.000000,28717890.000000
20144236.000000,28717890.000000
20148019.000000,28726666.000000
20999331.000000,29577978.000000
21013275.000000,29585592.000000
21015108.000000,29585461.000000
21021723.000000,29581210.000000
21873223.000000,28729710.000000
21879983.000000,28717330.000000
21874256.000000,28709680.000000
21703101.000000,28604795.000000
21694306.000000,28600313.000000
21484155.000000,28513266.000000
21474770.000000,28510217.000000
21253589.000000,28457115.000000
21243842.000000,28455572.000000
21017073.000000,28437725.000000
21007213.000000,28437725.000000
20780444.000000,28455572.000000
20770697.000000,28457115.000000
20549516.000000,28510217.000000
20540131.000000,28513266.000000
20329980.000000,28600313.000000
20321185.000000,28604795.000000
20153698.000000,28707432.000000
20144236.000000,28717890.000000
15379677.000000,28717890.000000
15379983.000000,28717330.000000
15374256.000000,28709680.000000
15203101.000000,28604795.000000
15194306.000000,28600313.000000
14984155.000000,28513266.000000
14974770.000000,28510217.000000
14753589.000000,28457115.000000
14743842.000000,28455572.000000
14517073.000000,28437725.000000
14507213.000000,28437725.000000
14280444.000000,28455572.000000
14270697.000000,28457115.000000
14049516.000000,28510217.000000
14040131.000000,28513266.000000
13829980.000000,28600313.000000
13821185.000000,28604795.000000
13653698.000000,28707432.000000
13644236.000000,28717890.000000
6352643.000000,28717890.000000
6352643.000000,15942670.000000
13644303.000000,15942670.000000
13650030.000000,15950320.000000
13821185.000000,16055205.000000
13829980.000000,16059687.000000
14040131.000000,16146734.000000
14049516.000000,16149783.000000
14270697.000000,16202885.000000
14280444.000000,16204428.000000
14507213.000000,16222275.000000
14517073.000000,16222275.000000
14743842.000000,16204428.000000
14753589.000000,16202885.000000
14974770.000000,16149783.000000
14984155.000000,16146734.000000
15194306.000000,16059687.000000
15203101.000000,16055205.000000
15370588.000000,15952568.000000
15379543.000000,15942670.000000
20144303.000000,15942670.000000
20150030.000000,15950320.000000
20321185.000000,16055205.000000
20329980.000000,16059687.000000
20540131.000000,16146734.000000
20549516.000000,16149783.000000
20770697.000000,16202885.000000
20780444.000000,16204428.000000
21007213.000000,16222275.000000
21017073.000000,16222275.000000
21243842.000000,16204428.000000
21253589.000000,16202885.000000
21474770.000000,16149783.000000
21484155.000000,16146734.000000
21694306.000000,16059687.000000
21703101.000000,16055205.000000
21870588.000000,15952568.000000
21880050.000000,15942110.000000
21876267.000000,15933334.000000
21024955.000000,15082022.000000
21011011.000000,15074408.000000
21009178.000000,15074539.000000
21002563.000000,15078790.000000
20151063.000000,15930290.000000
20144303.000000,15942670.000000
15379543.000000,15942670.000000
15380050.000000,15942110.000000
15376267.000000,15933334.000000
14524955.000000,15082022.000000
14511011.000000,15074408.000000
14509178.000000,15074539.000000
14502563.000000,15078790.000000
13651063.000000,15930290.000000
13644303.000000,15942670.000000
6352643.000000,15942670.000000
6352643.000000,14714930.000000
12999868.000000,14714930.000000
13017715.000000,14941699.000000
13019258.000000,14951446.000000
13072360.000000,15172627.000000
13075409.000000,15182012.000000
13162456.000000,15392163.000000
13166938.000000,15400958.000000
13269575.000000,15568445.000000
13280033.000000,15577907.000000
13288809.000000,15574124.000000
14140121.000000,14722812.000000
14146499.000000,14711132.000000
14876551.000000,14711132.000000
14876682.000000,14712965.000000
14880933.000000,14719580.000000
15732433.000000,15571080.000000
15744813.000000,15577840.000000
15752463.000000,15572113.000000
15857348.000000,15400958.000000
15861830.000000,15392163.000000
15948877.000000,15182012.000000
15951926.000000,15172627.000000
16005028.000000,14951446.000000
16006571.000000,14941699.000000
16024418.000000,14714930.000000
19499868.000000,14714930.000000
19517715.000000,14941699.000000
19519258.000000,14951446.000000
19572360.000000,15172627.000000
19575409.000000,15182012.000000
19662456.000000,15392163.000000
19666938.000000,15400958.000000
19769575.000000,15568445.000000
19780033.000000,15577907.000000
19788809.000000,15574124.000000
20640121.000000,14722812.000000
20646499.000000,14711132.000000
21376551.000000,14711132.000000
21376682.000000,14712965.000000
21380933.000000,14719580.000000
22232433.000000,15571080.000000
22244813.000000,15577840.000000
22252463.000000,15572113.000000
22357348.000000,15400958.000000
22361830.000000,15392163.000000
22448877.000000,15182012.000000
22451926.000000,15172627.000000
22505028.000000,14951446.000000
22506571.000000,14941699.000000
22524418.000000,14714930.000000
22524418.000000,14705070.000000
22506571.000000,14478301.000000
22505028.000000,14468554.000000
22451926.000000,14247373.000000
22448877.000000,14237988.000000
22361830.000000,14027837.000000
22357348.000000,14019042.000000
22254711.000000,13851555.000000
22244253.000000,13842093.000000
22235477.000000,13845876.000000
21384165.000000,14697188.000000
21376551.000000,14711132.000000
20646499.000000,14711132.000000
20647735.000000,14708868.000000
20647604.000000,14707035.000000
20643353.000000,14700420.000000
19791853.000000,13848920.000000
19779473.000000,13842160.000000
19771823.000000,13847887.000000
19666938.000000,14019042.000000
19662456.000000,14027837.000000
19575409.000000,14237988.000000
19572360.000000,14247373.000000
19519258.000000,14468554.000000
19517715.000000,14478301.000000
19499868.000000,14705070.000000
19499868.000000,14714930.000000
16024418.000000,14714930.000000
16024418.000000,14705070.000000
16006571.000000,14478301.000000
16005028.000000,14468554.000000
15951926.000000,14247373.000000
15948877.000000,14237988.000000
15861830.000000,14027837.000000
15857348.000000,14019042.000000
15754711.000000,13851555.000000
15744253.000000,13842093.000000
15735477.000000,13845876.000000
14884165.000000,14697188.000000
14876551.000000,14711132.000000
14146499.000000,14711132.000000
14147735.000000,14708868.000000
14147604.000000,14707035.000000
14143353.000000,14700420.000000
13291853.000000,13848920.000000
13279473.000000,13842160.000000
13271823.000000,13847887.000000
13166938.000000,14019042.000000
13162456.000000,14027837.000000
13075409.000000,14237988.000000
13072360.000000,14247373.000000
13019258.000000,14468554.000000
13017715.000000,14478301.000000
12999868.000000,14705070.000000
12999868.000000,14714930.000000
6352643.000000,14714930.000000
6352643.000000,13477890.000000
13644236.000000,13477890.000000
13648019.000000,13486666.000000
14499331.000000,14337978.000000
14513275.000000,14345592.000000
14515108.000000,14345461.000000
14521723.000000,14341210.000000
15373223.000000,13489710.000000
15379677.000000,13477890.000000
20144236.000000,13477890.000000
20148019.000000,13486666.000000
20999331.000000,14337978.000000
21013275.000000,14345592.000000
21015108.000000,14345461.000000
21021723.000000,14341210.000000
21873223.000000,13489710.000000
21879983.000000,13477330.000000
21874256.000000,13469680.000000
21703101.000000,13364795.000000
21694306.000000,13360313.000000
21484155.000000,13273266.000000
21474770.000000,13270217.000000
21253589.000000,13217115.000000
21243842.000000,13215572.000000
21017073.000000,13197725.000000
21007213.000000,13197725.000000
20780444.000000,13215572.000000
20770697.000000,13217115.000000
20549516.000000,13270217.000000
20540131.000000,13273266.000000
20329980.000000,13360313.000000
20321185.000000,13364795.000000
20153698.000000,13467432.000000
20144236.000000,13477890.000000
15379677.000000,13477890.000000
15379983.000000,13477330.000000
15374256.000000,13469680.000000
15203101.000000,13364795.000000
15194306.000000,13360313.000000
14984155.000000,13273266.000000
14974770.000000,13270217.000000
14753589.000000,13217115.000000
14743842.000000,13215572.000000
14517073.000000,13197725.000000
14507213.000000,13197725.000000
14280444.000000,13215572.000000
14270697.000000,13217115.000000
14049516.000000,13270217.000000
14040131.000000,13273266.000000
13829980.000000,13360313.000000
13821185.000000,13364795.000000
13653698.000000,13467432.000000
13644236.000000,13477890.000000
6352643.000000,13477890.000000
6352643.000000,5262703.000000
7322886.000000,5262703.000000
7360411.000000,5547734.000000
7436272.000000,5825036.000000
7549066.000000,6089476.000000
7696704.000000,6336161.000000
7876456.000000,6560528.000000
8084994.000000,6758423.000000
8318460.000000,6926186.000000
8322255.000000,6928195.000000
8322256.000000,6928196.000000
8344012.000000,6939715.000000
8572535.000000,7060712.000000
8842516.000000,7159511.000000
9123407.000000,7220755.000000
9151984.000000,7223004.000000
9346425.000000,7238307.000000
9346434.000000,7238307.000000
9348882.000000,7238500.000000
9504414.000000,7238500.000000
9506550.000000,7238354.000000
9506561.000000,7238354.000000
9714691.000000,7224165.000000
9714697.000000,7224164.000000
9718968.000000,7223873.000000
9723163.000000,7223004.000000
9723165.000000,7223004.000000
9859726.000000,7194724.000000
10000485.000000,7165574.000000
10271486.000000,7069607.000000
10526955.000000,6937750.000000
10530456.000000,6935289.000000
10530460.000000,6935287.000000
10644560.000000,6855096.000000
10762166.000000,6772441.000000
10972765.000000,6576740.000000
11154856.000000,6354268.000000
11305070.000000,6109142.000000
11420626.000000,5845898.000000
11499387.000000,5569406.000000
11539894.000000,5284784.000000
11539988.000000,5266951.000000
11540010.000000,5262703.000000
27642886.000000,5262703.000000
27680411.000000,5547734.000000
27756272.000000,5825036.000000
27869066.000000,6089476.000000
28016704.000000,6336161.000000
28196456.000000,6560528.000000
28404994.000000,6758423.000000
28638460.000000,6926186.000000
28642255.000000,6928195.000000
28642256.000000,6928196.000000
28664012.000000,6939715.000000
28892535.000000,7060712.000000
29162516.000000,7159511.000000
29443407.000000,7220755.000000
29471984.000000,7223004.000000
29666425.000000,7238307.000000
29666434.000000,7238307.000000
29668882.000000,7238500.000000
29824414.000000,7238500.000000
29826550.000000,7238354.000000
29826561.000000,7238354.000000
30034691.000000,7224165.000000
30034697.000000,7224164.000000
30038968.000000,7223873.000000
30043163.000000,7223004.000000
30043165.000000,7223004.000000
30179726.000000,7194724.000000
30320485.000000,7165574.000000
30591486.000000,7069607.000000
30846955.000000,6937750.000000
30850456.000000,6935289.000000
30850460.000000,6935287.000000
30964560.000000,6855096.000000
31082166.000000,6772441.000000
31292765.000000,6576740.000000
31474856.000000,6354268.000000
31625070.000000,6109142.000000
31740626.000000,5845898.000000
31819387.000000,5569406.000000
31859894.000000,5284784.000000
31859988.000000,5266951.000000
31861378.000000,5001583.000000
31861378.000000,5001576.000000
31861400.000000,4997297.000000
31823875.000000,4712266.000000
31748014.000000,4434964.000000
31635220.000000,4170524.000000
31487582.000000,3923839.000000
31307830.000000,3699472.000000
31099292.000000,3501577.000000
30865826.000000,3333814.000000
30843986.000000,3322250.000000
30820797.000000,3309972.000000
30611751.000000,3199288.000000
30341770.000000,3100489.000000
30060879.000000,3039245.000000
30029828.000000,3036801.000000
29837861.000000,3021693.000000
29837852.000000,3021693.000000
29835404.000000,3021500.000000
29679872.000000,3021500.000000
29677736.000000,3021646.000000
29677725.000000,3021646.000000
29469595.000000,3035835.000000
29469589.000000,3035836.000000
29465318.000000,3036127.000000
29461123.000000,3036996.000000
29461121.000000,3036996.000000
29324560.000000,3065276.000000
29183801.000000,3094426.000000
28912800.000000,3190393.000000
28657331.000000,3322250.000000
28653830.000000,3324711.000000
28653826.000000,3324713.000000
28643737.000000,3331804.000000
28422120.000000,3487559.000000
28211521.000000,3683260.000000
28029430.000000,3905732.000000
27879216.000000,4150858.000000
27763660.000000,4414102.000000
27684899.000000,4690594.000000
27644392.000000,4975216.000000
27644370.000000,4979505.000000
27644369.000000,4979512.000000
27642908.000000,5258417.000000
27642886.000000,5262703.000000
11540010.000000,5262703.000000
11541378.000000,5001583.000000
11541378.000000,5001576.000000
11541400.000000,4997297.000000
11503875.000000,4712266.000000
11428014.000000,4434964.000000
11315220.000000,4170524.000000
11167582.000000,3923839.000000
10987830.000000,3699472.000000
10779292.000000,3501577.000000
10545826.000000,3333814.000000
10523986.000000,3322250.000000
10500797.000000,3309972.000000
10291751.000000,3199288.000000
10021770.000000,3100489.000000
9740879.000000,3039245.000000
9709828.000000,3036801.000000
9517861.000000,3021693.000000
9517852.000000,3021693.000000
9515404.000000,3021500.000000
9359872.000000,3021500.000000
9357736.000000,3021646.000000
9357725.000000,3021646.000000
9149595.000000,3035835.000000
9149589.000000,3035836.000000
9145318.000000,3036127.000000
9141123.000000,3036996.000000
9141121.000000,3036996.000000
9004560.000000,3065276.000000
8863801.000000,3094426.000000
8592800.000000,3190393.000000
8337331.000000,3322250.000000
8333830.000000,3324711.000000
8333826.000000,3324713.000000
8323737.000000,3331804.000000
8102120.000000,3487559.000000
7891521.000000,3683260.000000
7709430.000000,3905732.000000
7559216.000000,4150858.000000
7443660.000000,4414102.000000
7364899.000000,4690594.000000
7324392.000000,4975216.000000
7324370.000000,4979505.000000
7324369.000000,4979512.000000
7322908.000000,5258417.000000
7322886.000000,5262703.000000
6352643.000000,5262703.000000
6352643.000000,2176500.000000
6372645.000000,2108379.000000
6426301.000000,2061886.000000
6478643.000000,2050500.000000
32705643.000000,2050500.000000
Z" /> 
</g>
</g>
</g>
<g style="fill:#FFFFFF; fill-opacity:1.0; 
stroke:#FFFFFF; stroke-width:1.000000; stroke-opacity:1; 
stroke-linecap:round; stroke-linejoin:round;">
<circle cx="29752143.000000" cy="10210000.000000" r="500000.000000" /> 
</g>
<g style="fill:#FFFFFF; fill-opacity:1.0; 
stroke:#FFFFFF; stroke-width:21200.000000; stroke-opacity:1; 
stroke-linecap:round; stroke-linejoin:round;">
</g>
<g style="fill:#FFFFFF; fill-opacity:1.0; 
stroke:#FFFFFF; stroke-width:1.000000; stroke-opacity:1; 
stroke-linecap:round; stroke-linejoin:round;">
<circle cx="29752143.000000" cy="12750000.000000" r="500000.000000" /> 
</g>
<g style="fill:#FFFFFF; fill-opacity:1.0; 
stroke:#FFFFFF; stroke-width:21200.000000; stroke-opacity:1; 
stroke-linecap:round; stroke-linejoin:round;">
</g>
<g style="fill:#FFFFFF; fill-opacity:1.0; 
stroke:#FFFFFF; stroke-width:1.000000; stroke-opacity:1; 
stroke-linecap:round; stroke-linejoin:round;">
<circle cx="29752143.000000" cy="15290000.000000" r="500000.000000" /> 
</g>
<g style="fill:#FFFFFF; fill-opacity:1.0; 
stroke:#FFFFFF; stroke-width:21200.000000; stroke-opacity:1; 
stroke-linecap:round; stroke-linejoin:round;">
</g>
<g style="fill:#FFFFFF; fill-opacity:1.0; 
stroke:#FFFFFF; stroke-width:1.000000; stroke-opacity:1; 
stroke-linecap:round; stroke-linejoin:round;">
<circle cx="29752143.000000" cy="17830000.000000" r="500000.000000" /> 
</g>
<g style="fill:#FFFFFF; fill-opacity:1.0; 
stroke:#FFFFFF; stroke-width:21200.000000; stroke-opacity:1; 
stroke-linecap:round; stroke-linejoin:round;">
</g>
<g style="fill:#FFFFFF; fill-opacity:1.0; 
stroke:#FFFFFF; stroke-width:1.000000; stroke-opacity:1; 
stroke-linecap:round; stroke-linejoin:round;">
<circle cx="9432143.000000" cy="45770000.000000" r="1599999.500000" /> 
</g>
<g style="fill:#FFFFFF; fill-opacity:1.0; 
stroke:#FFFFFF; stroke-width:21200.000000; stroke-opacity:1; 
stroke-linecap:round; stroke-linejoin:round;">
</g>
<g style="fill:#FFFFFF; fill-opacity:1.0; 
stroke:#FFFFFF; stroke-width:1.000000; stroke-opacity:1; 
stroke-linecap:round; stroke-linejoin:round;">
<circle cx="29752143.000000" cy="45770000.000000" r="1599999.500000" /> 
</g>
<g style="fill:#FFFFFF; fill-opacity:1.0; 
stroke:#FFFFFF; stroke-width:21200.000000; stroke-opacity:1; 
stroke-linecap:round; stroke-linejoin:round;">
</g>
<g style="fill:#FFFFFF; fill-opacity:1.0; 
stroke:#FFFFFF; stroke-width:1.000000; stroke-opacity:1; 
stroke-linecap:round; stroke-linejoin:round;">
<circle cx="21012143.000000" cy="10210000.000000" r="550000.000000" /> 
</g>
<g style="fill:#FFFFFF; fill-opacity:1.0; 
stroke:#FFFFFF; stroke-width:21200.000000; stroke-opacity:1; 
stroke-linecap:round; stroke-linejoin:round;">
</g>
<g style="fill:#FFFFFF; fill-opacity:1.0; 
stroke:#FFFFFF; stroke-width:1.000000; stroke-opacity:1; 
stroke-linecap:round; stroke-linejoin:round;">
<circle cx="14512143.000000" cy="10210000.000000" r="550000.000000" /> 
</g>
<g style="fill:#FFFFFF; fill-opacity:1.0; 
stroke:#FFFFFF; stroke-width:21200.000000; stroke-opacity:1; 
stroke-linecap:round; stroke-linejoin:round;">
</g>
<g style="fill:#FFFFFF; fill-opacity:1.0; 
stroke:#FFFFFF; stroke-width:1.000000; stroke-opacity:1; 
stroke-linecap:round; stroke-linejoin:round;">
<circle cx="21012143.000000" cy="14710000.000000" r="550000.000000" /> 
</g>
<g style="fill:#FFFFFF; fill-opacity:1.0; 
stroke:#FFFFFF; stroke-width:21200.000000; stroke-opacity:1; 
stroke-linecap:round; stroke-linejoin:round;">
</g>
<g style="fill:#FFFFFF; fill-opacity:1.0; 
stroke:#FFFFFF; stroke-width:1.000000; stroke-opacity:1; 
stroke-linecap:round; stroke-linejoin:round;">
<circle cx="14512143.000000" cy="14710000.000000" r="550000.000000" /> 
</g>
<g style="fill:#FFFFFF; fill-opacity:1.0; 
stroke:#FFFFFF; stroke-width:21200.000000; stroke-opacity:1; 
stroke-linecap:round; stroke-linejoin:round;">
</g>
<g style="fill:#FFFFFF; fill-opacity:1.0; 
stroke:#FFFFFF; stroke-width:1.000000; stroke-opacity:1; 
stroke-linecap:round; stroke-linejoin:round;">
<circle cx="14512143.000000" cy="40690000.000000" r="550000.000000" /> 
</g>
<g style="fill:#FFFFFF; fill-opacity:1.0; 
stroke:#FFFFFF; stroke-width:21200.000000; stroke-opacity:1; 
stroke-linecap:round; stroke-linejoin:round;">
</g>
<g style="fill:#FFFFFF; fill-opacity:1.0; 
stroke:#FFFFFF; stroke-width:1.000000; stroke-opacity:1; 
stroke-linecap:round; stroke-linejoin:round;">
<circle cx="21012143.000000" cy="40690000.000000" r="550000.000000" /> 
</g>
<g style="fill:#FFFFFF; fill-opacity:1.0; 
stroke:#FFFFFF; stroke-width:21200.000000; stroke-opacity:1; 
stroke-linecap:round; stroke-linejoin:round;">
</g>
<g style="fill:#FFFFFF; fill-opacity:1.0; 
stroke:#FFFFFF; stroke-width:1.000000; stroke-opacity:1; 
stroke-linecap:round; stroke-linejoin:round;">
<circle cx="21012143.000000" cy="45190000.000000" r="550000.000000" /> 
</g>
<g style="fill:#FFFFFF; fill-opacity:1.0; 
stroke:#FFFFFF; stroke-width:21200.000000; stroke-opacity:1; 
stroke-linecap:round; stroke-linejoin:round;">
</g>
<g style="fill:#FFFFFF; fill-opacity:1.0; 
stroke:#FFFFFF; stroke-width:1.000000; stroke-opacity:1; 
stroke-linecap:round; stroke-linejoin:round;">
<circle cx="14512143.000000" cy="45190000.000000" r="550000.000000" /> 
</g>
<g style="fill:#FFFFFF; fill-opacity:1.0; 
stroke:#FFFFFF; stroke-width:21200.000000; stroke-opacity:1; 
stroke-linecap:round; stroke-linejoin:round;">
</g>
<g style="fill:#FFFFFF; fill-opacity:1.0; 
stroke:#FFFFFF; stroke-width:1.000000; stroke-opacity:1; 
stroke-linecap:round; stroke-linejoin:round;">
<circle cx="9432143.000000" cy="5130000.000000" r="1599999.500000" /> 
</g>
<g style="fill:#FFFFFF; fill-opacity:1.0; 
stroke:#FFFFFF; stroke-width:21200.000000; stroke-opacity:1; 
stroke-linecap:round; stroke-linejoin:round;">
</g>
<g style="fill:#FFFFFF; fill-opacity:1.0; 
stroke:#FFFFFF; stroke-width:1.000000; stroke-opacity:1; 
stroke-linecap:round; stroke-linejoin:round;">
<circle cx="14512143.000000" cy="25450000.000000" r="550000.000000" /> 
</g>
<g style="fill:#FFFFFF; fill-opacity:1.0; 
stroke:#FFFFFF; stroke-width:21200.000000; stroke-opacity:1; 
stroke-linecap:round; stroke-linejoin:round;">
</g>
<g style="fill:#FFFFFF; fill-opacity:1.0; 
stroke:#FFFFFF; stroke-width:1.000000; stroke-opacity:1; 
stroke-linecap:round; stroke-linejoin:round;">
<circle cx="21012143.000000" cy="25450000.000000" r="550000.000000" /> 
</g>
<g style="fill:#FFFFFF; fill-opacity:1.0; 
stroke:#FFFFFF; stroke-width:21200.000000; stroke-opacity:1; 
stroke-linecap:round; stroke-linejoin:round;">
</g>
<g style="fill:#FFFFFF; fill-opacity:1.0; 
stroke:#FFFFFF; stroke-width:1.000000; stroke-opacity:1; 
stroke-linecap:round; stroke-linejoin:round;">
<circle cx="21012143.000000" cy="29950000.000000" r="550000.000000" /> 
</g>
<g style="fill:#FFFFFF; fill-opacity:1.0; 
stroke:#FFFFFF; stroke-width:21200.000000; stroke-opacity:1; 
stroke-linecap:round; stroke-linejoin:round;">
</g>
<g style="fill:#FFFFFF; fill-opacity:1.0; 
stroke:#FFFFFF; stroke-width:1.000000; stroke-opacity:1; 
stroke-linecap:round; stroke-linejoin:round;">
<circle cx="14512143.000000" cy="29950000.000000" r="550000.000000" /> 
</g>
<g style="fill:#FFFFFF; fill-opacity:1.0; 
stroke:#FFFFFF; stroke-width:21200.000000; stroke-opacity:1; 
stroke-linecap:round; stroke-linejoin:round;">
</g>
<g style="fill:#FFFFFF; fill-opacity:1.0; 
stroke:#FFFFFF; stroke-width:1.000000; stroke-opacity:1; 
stroke-linecap:round; stroke-linejoin:round;">
<circle cx="29752143.000000" cy="5130000.000000" r="1599999.500000" /> 
</g>
<g style="fill:#FFFFFF; fill-opacity:1.0; 
stroke:#FFFFFF; stroke-width:21200.000000; stroke-opacity:1; 
stroke-linecap:round; stroke-linejoin:round;">
</g>
<g style="fill:#000000; fill-opacity:1.0; 
stroke:#000000; stroke-width:21200.000000; stroke-opacity:1; 
stroke-linecap:round; stroke-linejoin:round;">
</g>
<g style="fill:#000000; fill-opacity:1.0; 
stroke:#000000; stroke-width:100000.000000; stroke-opacity:1; 
stroke-linecap:round; stroke-linejoin:round;">
</g>
<g style="fill:#000000; fill-opacity:0.0; 
stroke:#000000; stroke-width:100000.000000; stroke-opacity:1; 
stroke-linecap:round; stroke-linejoin:round;">
<path d="M4352143 50000
L34832143 50000
" />
<path d="M34832143 50000
L34832143 50850000
" />
<path d="M34832143 50850000
L4352143 50850000
" />
<path d="M4352143 50850000
L4352143 50000
" />
<g >
</g>
<g >
</g>
<g >
</g>
<g >
</g>
<g >
</g>
<g >
</g>
<g >
</g>
<g >
</g>
<g >
</g>
<g >
</g>
<g >
</g>
</g> 
</svg>
