<?xml version="1.0" standalone="no"?>
 <!DOCTYPE svg PUBLIC "-//W3C//DTD SVG 1.1//EN" 
 "http://www.w3.org/Graphics/SVG/1.1/DTD/svg11.dtd"> 
<svg
  xmlns:svg="http://www.w3.org/2000/svg"
  xmlns="http://www.w3.org/2000/svg"
  xmlns:xlink="http://www.w3.org/1999/xlink"
  version="1.1"
  width="29.700220cm" height="21.000720cm" viewBox="0 0 297002200 210007200">
<title>SVG Picture created as auxiliary-B_Cu.svg date 2022/11/14 14:41:10 </title>
  <desc>Picture generated by PCBNEW </desc>
<g style="fill:#000000; fill-opacity:1.000000;stroke:#000000; stroke-opacity:1.000000;
stroke-linecap:round; stroke-linejoin:round;"
 transform="translate(0 0) scale(1 1)">
</g>
<g style="fill:#000000; fill-opacity:0.0; 
stroke:#000000; stroke-width:0.000000; stroke-opacity:1; 
stroke-linecap:round; stroke-linejoin:round;">
<g >
</g>
<g style="fill:#000000; fill-opacity:0.0; 
stroke:#000000; stroke-width:1.000000; stroke-opacity:1; 
stroke-linecap:round; stroke-linejoin:round;">
</g>
<g style="fill:#000000; fill-opacity:1.0; 
stroke:#000000; stroke-width:1.000000; stroke-opacity:1; 
stroke-linecap:round; stroke-linejoin:round;">
<path style="fill:#000000; fill-opacity:1.0; 
stroke:#000000; stroke-width:1.000000; stroke-opacity:1; 
stroke-linecap:round; stroke-linejoin:round;fill-rule:evenodd;"
d="M 49950000.000000,31330000.000000
49950000.000000,29630000.000000
51650000.000000,29630000.000000
51650000.000000,31330000.000000
Z" /> 
<circle cx="50800000.000000" cy="33020000.000000" r="850000.000000" /> 
<circle cx="50800000.000000" cy="35560000.000000" r="850000.000000" /> 
<circle cx="50800000.000000" cy="38100000.000000" r="850000.000000" /> 
</g>
<g >
</g>
<g >
</g>
<g >
</g>
<g style="fill:#000000; fill-opacity:1.0; 
stroke:#000000; stroke-width:1.000000; stroke-opacity:1; 
stroke-linecap:round; stroke-linejoin:round;">
<circle cx="42060000.000000" cy="30480000.000000" r="1000000.000000" /> 
</g>
<g style="fill:#000000; fill-opacity:1.0; 
stroke:#000000; stroke-width:21200.000000; stroke-opacity:1; 
stroke-linecap:round; stroke-linejoin:round;">
</g>
<g style="fill:#000000; fill-opacity:1.0; 
stroke:#000000; stroke-width:1.000000; stroke-opacity:1; 
stroke-linecap:round; stroke-linejoin:round;">
<circle cx="35560000.000000" cy="30480000.000000" r="1000000.000000" /> 
</g>
<g style="fill:#000000; fill-opacity:1.0; 
stroke:#000000; stroke-width:21200.000000; stroke-opacity:1; 
stroke-linecap:round; stroke-linejoin:round;">
</g>
<g style="fill:#000000; fill-opacity:1.0; 
stroke:#000000; stroke-width:1.000000; stroke-opacity:1; 
stroke-linecap:round; stroke-linejoin:round;">
<circle cx="42060000.000000" cy="34980000.000000" r="1000000.000000" /> 
</g>
<g style="fill:#000000; fill-opacity:1.0; 
stroke:#000000; stroke-width:21200.000000; stroke-opacity:1; 
stroke-linecap:round; stroke-linejoin:round;">
</g>
<g style="fill:#000000; fill-opacity:1.0; 
stroke:#000000; stroke-width:1.000000; stroke-opacity:1; 
stroke-linecap:round; stroke-linejoin:round;">
<circle cx="35560000.000000" cy="34980000.000000" r="1000000.000000" /> 
</g>
<g style="fill:#000000; fill-opacity:1.0; 
stroke:#000000; stroke-width:21200.000000; stroke-opacity:1; 
stroke-linecap:round; stroke-linejoin:round;">
</g>
<g >
</g>
<g style="fill:#000000; fill-opacity:1.0; 
stroke:#000000; stroke-width:21200.000000; stroke-opacity:1; 
stroke-linecap:round; stroke-linejoin:round;">
</g>
<g style="fill:#000000; fill-opacity:1.0; 
stroke:#000000; stroke-width:1.000000; stroke-opacity:1; 
stroke-linecap:round; stroke-linejoin:round;">
<circle cx="35560000.000000" cy="60960000.000000" r="1000000.000000" /> 
</g>
<g style="fill:#000000; fill-opacity:1.0; 
stroke:#000000; stroke-width:21200.000000; stroke-opacity:1; 
stroke-linecap:round; stroke-linejoin:round;">
</g>
<g style="fill:#000000; fill-opacity:1.0; 
stroke:#000000; stroke-width:1.000000; stroke-opacity:1; 
stroke-linecap:round; stroke-linejoin:round;">
<circle cx="42060000.000000" cy="60960000.000000" r="1000000.000000" /> 
</g>
<g style="fill:#000000; fill-opacity:1.0; 
stroke:#000000; stroke-width:21200.000000; stroke-opacity:1; 
stroke-linecap:round; stroke-linejoin:round;">
</g>
<g style="fill:#000000; fill-opacity:1.0; 
stroke:#000000; stroke-width:1.000000; stroke-opacity:1; 
stroke-linecap:round; stroke-linejoin:round;">
<circle cx="42060000.000000" cy="65460000.000000" r="1000000.000000" /> 
</g>
<g style="fill:#000000; fill-opacity:1.0; 
stroke:#000000; stroke-width:21200.000000; stroke-opacity:1; 
stroke-linecap:round; stroke-linejoin:round;">
</g>
<g style="fill:#000000; fill-opacity:1.0; 
stroke:#000000; stroke-width:1.000000; stroke-opacity:1; 
stroke-linecap:round; stroke-linejoin:round;">
<circle cx="35560000.000000" cy="65460000.000000" r="1000000.000000" /> 
</g>
<g style="fill:#000000; fill-opacity:1.0; 
stroke:#000000; stroke-width:21200.000000; stroke-opacity:1; 
stroke-linecap:round; stroke-linejoin:round;">
</g>
<g >
</g>
<g >
</g>
<g style="fill:#000000; fill-opacity:1.0; 
stroke:#000000; stroke-width:21200.000000; stroke-opacity:1; 
stroke-linecap:round; stroke-linejoin:round;">
</g>
<g style="fill:#000000; fill-opacity:1.0; 
stroke:#000000; stroke-width:1.000000; stroke-opacity:1; 
stroke-linecap:round; stroke-linejoin:round;">
<circle cx="35560000.000000" cy="45720000.000000" r="1000000.000000" /> 
</g>
<g style="fill:#000000; fill-opacity:1.0; 
stroke:#000000; stroke-width:21200.000000; stroke-opacity:1; 
stroke-linecap:round; stroke-linejoin:round;">
</g>
<g style="fill:#000000; fill-opacity:1.0; 
stroke:#000000; stroke-width:1.000000; stroke-opacity:1; 
stroke-linecap:round; stroke-linejoin:round;">
<circle cx="42060000.000000" cy="45720000.000000" r="1000000.000000" /> 
</g>
<g style="fill:#000000; fill-opacity:1.0; 
stroke:#000000; stroke-width:21200.000000; stroke-opacity:1; 
stroke-linecap:round; stroke-linejoin:round;">
</g>
<g style="fill:#000000; fill-opacity:1.0; 
stroke:#000000; stroke-width:1.000000; stroke-opacity:1; 
stroke-linecap:round; stroke-linejoin:round;">
<circle cx="42060000.000000" cy="50220000.000000" r="1000000.000000" /> 
</g>
<g style="fill:#000000; fill-opacity:1.0; 
stroke:#000000; stroke-width:21200.000000; stroke-opacity:1; 
stroke-linecap:round; stroke-linejoin:round;">
</g>
<g style="fill:#000000; fill-opacity:1.0; 
stroke:#000000; stroke-width:1.000000; stroke-opacity:1; 
stroke-linecap:round; stroke-linejoin:round;">
<circle cx="35560000.000000" cy="50220000.000000" r="1000000.000000" /> 
</g>
<g style="fill:#000000; fill-opacity:1.0; 
stroke:#000000; stroke-width:21200.000000; stroke-opacity:1; 
stroke-linecap:round; stroke-linejoin:round;">
</g>
<g >
</g>
<g >
</g>
<g >
</g>
<g style="fill:#000000; fill-opacity:1.0; 
stroke:#000000; stroke-width:21200.000000; stroke-opacity:1; 
stroke-linecap:round; stroke-linejoin:round;">
</g>
<g style="fill:#000000; fill-opacity:1.0; 
stroke:#000000; stroke-width:500000.000000; stroke-opacity:1; 
stroke-linecap:round; stroke-linejoin:round;">
</g>
<g style="fill:#000000; fill-opacity:0.0; 
stroke:#000000; stroke-width:500000.000000; stroke-opacity:1; 
stroke-linecap:round; stroke-linejoin:round;">
<path d="M35560000 30480000
L42060000 30480000
" />
<path d="M42060000 30480000
L50800000 30480000
" />
<path d="M50800000 33020000
L42060000 41760000
" />
<path d="M35560000 45720000
L42060000 45720000
" />
<path d="M42060000 41760000
L42060000 45720000
" />
<path d="M35560000 60960000
L42060000 60960000
" />
<path d="M45720000 40640000
L50800000 35560000
" />
<path d="M45720000 57300000
L45720000 40640000
" />
<path d="M42060000 60960000
L45720000 57300000
" />
</g>
<g style="fill:#000000; fill-opacity:0.0; 
stroke:#000000; stroke-width:1000000.000000; stroke-opacity:1; 
stroke-linecap:round; stroke-linejoin:round;">
<path d="M42060000 65460000
L50800000 56720000
" />
<path d="M42060000 34980000
L35560000 34980000
" />
<path d="M42060000 50220000
L35560000 50220000
" />
<path d="M42060000 65460000
L35560000 65460000
" />
<path d="M33660000 63560000
L35560000 65460000
" />
<path d="M35560000 50220000
L33660000 52120000
" />
<path d="M33660000 52120000
L33660000 52700000
" />
<path d="M33660000 36880000
L33660000 52700000
" />
<path d="M33660000 52700000
L33660000 63560000
" />
<path d="M35560000 34980000
L33660000 36880000
" />
<path d="M50800000 56720000
L50800000 38100000
" />
</g>
<g >
</g>
<g style="fill:#000000; fill-opacity:0.0; 
stroke:#000000; stroke-width:1000000.000000; stroke-opacity:1; 
stroke-linecap:round; stroke-linejoin:round;">
<g >
</g>
<g style="fill:#000000; fill-opacity:1.0; 
stroke:#000000; stroke-width:1.000000; stroke-opacity:1; 
stroke-linecap:round; stroke-linejoin:round;">
<path style="fill:#000000; fill-opacity:1.0; 
stroke:#000000; stroke-width:1.000000; stroke-opacity:1; 
stroke-linecap:round; stroke-linejoin:round;fill-rule:evenodd;"
d="M 53821621.000000,22340502.000000
53868114.000000,22394158.000000
53879500.000000,22446500.000000
53879500.000000,68993500.000000
53859498.000000,69061621.000000
53805842.000000,69108114.000000
53753500.000000,69119500.000000
27526500.000000,69119500.000000
27458379.000000,69099498.000000
27411886.000000,69045842.000000
27400500.000000,68993500.000000
27400500.000000,66172703.000000
28370743.000000,66172703.000000
28408268.000000,66457734.000000
28484129.000000,66735036.000000
28485813.000000,66738984.000000
28585321.000000,66972275.000000
28596923.000000,66999476.000000
28744561.000000,67246161.000000
28924313.000000,67470528.000000
29132851.000000,67668423.000000
29366317.000000,67836186.000000
29370112.000000,67838195.000000
29370113.000000,67838196.000000
29391869.000000,67849715.000000
29620392.000000,67970712.000000
29890373.000000,68069511.000000
30171264.000000,68130755.000000
30199841.000000,68133004.000000
30394282.000000,68148307.000000
30394291.000000,68148307.000000
30396739.000000,68148500.000000
30552271.000000,68148500.000000
30554407.000000,68148354.000000
30554418.000000,68148354.000000
30762548.000000,68134165.000000
30762554.000000,68134164.000000
30766825.000000,68133873.000000
30771020.000000,68133004.000000
30771022.000000,68133004.000000
30907584.000000,68104723.000000
31048342.000000,68075574.000000
31319343.000000,67979607.000000
31574812.000000,67847750.000000
31578313.000000,67845289.000000
31578317.000000,67845287.000000
31692418.000000,67765095.000000
31810023.000000,67682441.000000
32020622.000000,67486740.000000
32202713.000000,67264268.000000
32352927.000000,67019142.000000
32381335.000000,66954428.000000
32466757.000000,66759830.000000
32468483.000000,66755898.000000
32483675.000000,66702568.000000
32486494.000000,66692670.000000
34692160.000000,66692670.000000
34697887.000000,66700320.000000
34869042.000000,66805205.000000
34877837.000000,66809687.000000
35087988.000000,66896734.000000
35097373.000000,66899783.000000
35318554.000000,66952885.000000
35328301.000000,66954428.000000
35555070.000000,66972275.000000
35564930.000000,66972275.000000
35791699.000000,66954428.000000
35801446.000000,66952885.000000
36022627.000000,66899783.000000
36032012.000000,66896734.000000
36242163.000000,66809687.000000
36250958.000000,66805205.000000
36418445.000000,66702568.000000
36427400.000000,66692670.000000
41192160.000000,66692670.000000
41197887.000000,66700320.000000
41369042.000000,66805205.000000
41377837.000000,66809687.000000
41587988.000000,66896734.000000
41597373.000000,66899783.000000
41818554.000000,66952885.000000
41828301.000000,66954428.000000
42055070.000000,66972275.000000
42064930.000000,66972275.000000
42291699.000000,66954428.000000
42301446.000000,66952885.000000
42522627.000000,66899783.000000
42532012.000000,66896734.000000
42742163.000000,66809687.000000
42750958.000000,66805205.000000
42918445.000000,66702568.000000
42927907.000000,66692110.000000
42924124.000000,66683334.000000
42072812.000000,65832022.000000
42058868.000000,65824408.000000
42057035.000000,65824539.000000
42050420.000000,65828790.000000
41198920.000000,66680290.000000
41192160.000000,66692670.000000
36427400.000000,66692670.000000
36427907.000000,66692110.000000
36424124.000000,66683334.000000
35572812.000000,65832022.000000
35558868.000000,65824408.000000
35557035.000000,65824539.000000
35550420.000000,65828790.000000
34698920.000000,66680290.000000
34692160.000000,66692670.000000
32486494.000000,66692670.000000
32546068.000000,66483534.000000
32547244.000000,66479406.000000
32587751.000000,66194784.000000
32587845.000000,66176951.000000
32589235.000000,65911583.000000
32589235.000000,65911576.000000
32589257.000000,65907297.000000
32578345.000000,65824408.000000
32552292.000000,65626522.000000
32551732.000000,65622266.000000
32508690.000000,65464930.000000
34047725.000000,65464930.000000
34065572.000000,65691699.000000
34067115.000000,65701446.000000
34120217.000000,65922627.000000
34123266.000000,65932012.000000
34210313.000000,66142163.000000
34214795.000000,66150958.000000
34317432.000000,66318445.000000
34327890.000000,66327907.000000
34336666.000000,66324124.000000
35187978.000000,65472812.000000
35194356.000000,65461132.000000
35924408.000000,65461132.000000
35924539.000000,65462965.000000
35928790.000000,65469580.000000
36780290.000000,66321080.000000
36792670.000000,66327840.000000
36800320.000000,66322113.000000
36905205.000000,66150958.000000
36909687.000000,66142163.000000
36996734.000000,65932012.000000
36999783.000000,65922627.000000
37052885.000000,65701446.000000
37054428.000000,65691699.000000
37072275.000000,65464930.000000
40547725.000000,65464930.000000
40565572.000000,65691699.000000
40567115.000000,65701446.000000
40620217.000000,65922627.000000
40623266.000000,65932012.000000
40710313.000000,66142163.000000
40714795.000000,66150958.000000
40817432.000000,66318445.000000
40827890.000000,66327907.000000
40836666.000000,66324124.000000
41687978.000000,65472812.000000
41694356.000000,65461132.000000
42424408.000000,65461132.000000
42424539.000000,65462965.000000
42428790.000000,65469580.000000
43280290.000000,66321080.000000
43292670.000000,66327840.000000
43300320.000000,66322113.000000
43391880.000000,66172703.000000
48690743.000000,66172703.000000
48728268.000000,66457734.000000
48804129.000000,66735036.000000
48805813.000000,66738984.000000
48905321.000000,66972275.000000
48916923.000000,66999476.000000
49064561.000000,67246161.000000
49244313.000000,67470528.000000
49452851.000000,67668423.000000
49686317.000000,67836186.000000
49690112.000000,67838195.000000
49690113.000000,67838196.000000
49711869.000000,67849715.000000
49940392.000000,67970712.000000
50210373.000000,68069511.000000
50491264.000000,68130755.000000
50519841.000000,68133004.000000
50714282.000000,68148307.000000
50714291.000000,68148307.000000
50716739.000000,68148500.000000
50872271.000000,68148500.000000
50874407.000000,68148354.000000
50874418.000000,68148354.000000
51082548.000000,68134165.000000
51082554.000000,68134164.000000
51086825.000000,68133873.000000
51091020.000000,68133004.000000
51091022.000000,68133004.000000
51227584.000000,68104723.000000
51368342.000000,68075574.000000
51639343.000000,67979607.000000
51894812.000000,67847750.000000
51898313.000000,67845289.000000
51898317.000000,67845287.000000
52012418.000000,67765095.000000
52130023.000000,67682441.000000
52340622.000000,67486740.000000
52522713.000000,67264268.000000
52672927.000000,67019142.000000
52701335.000000,66954428.000000
52786757.000000,66759830.000000
52788483.000000,66755898.000000
52803675.000000,66702568.000000
52866068.000000,66483534.000000
52867244.000000,66479406.000000
52907751.000000,66194784.000000
52907845.000000,66176951.000000
52909235.000000,65911583.000000
52909235.000000,65911576.000000
52909257.000000,65907297.000000
52898345.000000,65824408.000000
52872292.000000,65626522.000000
52871732.000000,65622266.000000
52795871.000000,65344964.000000
52689504.000000,65095592.000000
52684763.000000,65084476.000000
52684761.000000,65084472.000000
52683077.000000,65080524.000000
52535439.000000,64833839.000000
52355687.000000,64609472.000000
52147149.000000,64411577.000000
51913683.000000,64243814.000000
51891843.000000,64232250.000000
51863856.000000,64217432.000000
51659608.000000,64109288.000000
51389627.000000,64010489.000000
51108736.000000,63949245.000000
51077685.000000,63946801.000000
50885718.000000,63931693.000000
50885709.000000,63931693.000000
50883261.000000,63931500.000000
50727729.000000,63931500.000000
50725593.000000,63931646.000000
50725582.000000,63931646.000000
50517452.000000,63945835.000000
50517446.000000,63945836.000000
50513175.000000,63946127.000000
50508980.000000,63946996.000000
50508978.000000,63946996.000000
50419278.000000,63965572.000000
50231658.000000,64004426.000000
49960657.000000,64100393.000000
49705188.000000,64232250.000000
49701687.000000,64234711.000000
49701683.000000,64234713.000000
49694573.000000,64239710.000000
49469977.000000,64397559.000000
49259378.000000,64593260.000000
49077287.000000,64815732.000000
48927073.000000,65060858.000000
48811517.000000,65324102.000000
48732756.000000,65600594.000000
48692249.000000,65885216.000000
48692227.000000,65889505.000000
48692226.000000,65889512.000000
48690765.000000,66168417.000000
48690743.000000,66172703.000000
43391880.000000,66172703.000000
43405205.000000,66150958.000000
43409687.000000,66142163.000000
43496734.000000,65932012.000000
43499783.000000,65922627.000000
43552885.000000,65701446.000000
43554428.000000,65691699.000000
43572275.000000,65464930.000000
43572275.000000,65455070.000000
43554428.000000,65228301.000000
43552885.000000,65218554.000000
43499783.000000,64997373.000000
43496734.000000,64987988.000000
43409687.000000,64777837.000000
43405205.000000,64769042.000000
43302568.000000,64601555.000000
43292110.000000,64592093.000000
43283334.000000,64595876.000000
42432022.000000,65447188.000000
42424408.000000,65461132.000000
41694356.000000,65461132.000000
41695592.000000,65458868.000000
41695461.000000,65457035.000000
41691210.000000,65450420.000000
40839710.000000,64598920.000000
40827330.000000,64592160.000000
40819680.000000,64597887.000000
40714795.000000,64769042.000000
40710313.000000,64777837.000000
40623266.000000,64987988.000000
40620217.000000,64997373.000000
40567115.000000,65218554.000000
40565572.000000,65228301.000000
40547725.000000,65455070.000000
40547725.000000,65464930.000000
37072275.000000,65464930.000000
37072275.000000,65455070.000000
37054428.000000,65228301.000000
37052885.000000,65218554.000000
36999783.000000,64997373.000000
36996734.000000,64987988.000000
36909687.000000,64777837.000000
36905205.000000,64769042.000000
36802568.000000,64601555.000000
36792110.000000,64592093.000000
36783334.000000,64595876.000000
35932022.000000,65447188.000000
35924408.000000,65461132.000000
35194356.000000,65461132.000000
35195592.000000,65458868.000000
35195461.000000,65457035.000000
35191210.000000,65450420.000000
34339710.000000,64598920.000000
34327330.000000,64592160.000000
34319680.000000,64597887.000000
34214795.000000,64769042.000000
34210313.000000,64777837.000000
34123266.000000,64987988.000000
34120217.000000,64997373.000000
34067115.000000,65218554.000000
34065572.000000,65228301.000000
34047725.000000,65455070.000000
34047725.000000,65464930.000000
32508690.000000,65464930.000000
32475871.000000,65344964.000000
32369504.000000,65095592.000000
32364763.000000,65084476.000000
32364761.000000,65084472.000000
32363077.000000,65080524.000000
32215439.000000,64833839.000000
32035687.000000,64609472.000000
31827149.000000,64411577.000000
31593683.000000,64243814.000000
31571843.000000,64232250.000000
31563608.000000,64227890.000000
34692093.000000,64227890.000000
34695876.000000,64236666.000000
35547188.000000,65087978.000000
35561132.000000,65095592.000000
35562965.000000,65095461.000000
35569580.000000,65091210.000000
36421080.000000,64239710.000000
36427534.000000,64227890.000000
41192093.000000,64227890.000000
41195876.000000,64236666.000000
42047188.000000,65087978.000000
42061132.000000,65095592.000000
42062965.000000,65095461.000000
42069580.000000,65091210.000000
42921080.000000,64239710.000000
42927840.000000,64227330.000000
42922113.000000,64219680.000000
42750958.000000,64114795.000000
42742163.000000,64110313.000000
42532012.000000,64023266.000000
42522627.000000,64020217.000000
42301446.000000,63967115.000000
42291699.000000,63965572.000000
42064930.000000,63947725.000000
42055070.000000,63947725.000000
41828301.000000,63965572.000000
41818554.000000,63967115.000000
41597373.000000,64020217.000000
41587988.000000,64023266.000000
41377837.000000,64110313.000000
41369042.000000,64114795.000000
41201555.000000,64217432.000000
41192093.000000,64227890.000000
36427534.000000,64227890.000000
36427840.000000,64227330.000000
36422113.000000,64219680.000000
36250958.000000,64114795.000000
36242163.000000,64110313.000000
36032012.000000,64023266.000000
36022627.000000,64020217.000000
35801446.000000,63967115.000000
35791699.000000,63965572.000000
35564930.000000,63947725.000000
35555070.000000,63947725.000000
35328301.000000,63965572.000000
35318554.000000,63967115.000000
35097373.000000,64020217.000000
35087988.000000,64023266.000000
34877837.000000,64110313.000000
34869042.000000,64114795.000000
34701555.000000,64217432.000000
34692093.000000,64227890.000000
31563608.000000,64227890.000000
31543856.000000,64217432.000000
31339608.000000,64109288.000000
31069627.000000,64010489.000000
30788736.000000,63949245.000000
30757685.000000,63946801.000000
30565718.000000,63931693.000000
30565709.000000,63931693.000000
30563261.000000,63931500.000000
30407729.000000,63931500.000000
30405593.000000,63931646.000000
30405582.000000,63931646.000000
30197452.000000,63945835.000000
30197446.000000,63945836.000000
30193175.000000,63946127.000000
30188980.000000,63946996.000000
30188978.000000,63946996.000000
30099278.000000,63965572.000000
29911658.000000,64004426.000000
29640657.000000,64100393.000000
29385188.000000,64232250.000000
29381687.000000,64234711.000000
29381683.000000,64234713.000000
29374573.000000,64239710.000000
29149977.000000,64397559.000000
28939378.000000,64593260.000000
28757287.000000,64815732.000000
28607073.000000,65060858.000000
28491517.000000,65324102.000000
28412756.000000,65600594.000000
28372249.000000,65885216.000000
28372227.000000,65889505.000000
28372226.000000,65889512.000000
28370765.000000,66168417.000000
28370743.000000,66172703.000000
27400500.000000,66172703.000000
27400500.000000,60960000.000000
34046835.000000,60960000.000000
34065465.000000,61196711.000000
34120895.000000,61427594.000000
34211760.000000,61646963.000000
34214346.000000,61651183.000000
34333241.000000,61845202.000000
34333245.000000,61845208.000000
34335824.000000,61849416.000000
34490031.000000,62029969.000000
34670584.000000,62184176.000000
34674792.000000,62186755.000000
34674798.000000,62186759.000000
34868817.000000,62305654.000000
34873037.000000,62308240.000000
34877607.000000,62310133.000000
34877611.000000,62310135.000000
35087833.000000,62397211.000000
35092406.000000,62399105.000000
35172609.000000,62418360.000000
35318476.000000,62453380.000000
35318482.000000,62453381.000000
35323289.000000,62454535.000000
35560000.000000,62473165.000000
35796711.000000,62454535.000000
35801518.000000,62453381.000000
35801524.000000,62453380.000000
35947391.000000,62418360.000000
36027594.000000,62399105.000000
36032167.000000,62397211.000000
36242389.000000,62310135.000000
36242393.000000,62310133.000000
36246963.000000,62308240.000000
36251183.000000,62305654.000000
36445202.000000,62186759.000000
36445208.000000,62186755.000000
36449416.000000,62184176.000000
36629969.000000,62029969.000000
36784176.000000,61849416.000000
36827533.000000,61778664.000000
36880181.000000,61731033.000000
36934965.000000,61718500.000000
40685035.000000,61718500.000000
40753156.000000,61738502.000000
40792466.000000,61778663.000000
40835824.000000,61849416.000000
40990031.000000,62029969.000000
41170584.000000,62184176.000000
41174792.000000,62186755.000000
41174798.000000,62186759.000000
41368817.000000,62305654.000000
41373037.000000,62308240.000000
41377607.000000,62310133.000000
41377611.000000,62310135.000000
41587833.000000,62397211.000000
41592406.000000,62399105.000000
41672609.000000,62418360.000000
41818476.000000,62453380.000000
41818482.000000,62453381.000000
41823289.000000,62454535.000000
42060000.000000,62473165.000000
42296711.000000,62454535.000000
42301518.000000,62453381.000000
42301524.000000,62453380.000000
42447391.000000,62418360.000000
42527594.000000,62399105.000000
42532167.000000,62397211.000000
42742389.000000,62310135.000000
42742393.000000,62310133.000000
42746963.000000,62308240.000000
42751183.000000,62305654.000000
42945202.000000,62186759.000000
42945208.000000,62186755.000000
42949416.000000,62184176.000000
43129969.000000,62029969.000000
43284176.000000,61849416.000000
43286755.000000,61845208.000000
43286759.000000,61845202.000000
43405654.000000,61651183.000000
43408240.000000,61646963.000000
43499105.000000,61427594.000000
43554535.000000,61196711.000000
43573165.000000,60960000.000000
43554535.000000,60723289.000000
43553381.000000,60718482.000000
43553380.000000,60718476.000000
43535164.000000,60642602.000000
43538711.000000,60571694.000000
43568588.000000,60524093.000000
46208911.000000,57883770.000000
46223323.000000,57871384.000000
46234918.000000,57862851.000000
46234923.000000,57862846.000000
46240818.000000,57858508.000000
46245557.000000,57852930.000000
46245560.000000,57852927.000000
46275035.000000,57818232.000000
46281965.000000,57810716.000000
46287661.000000,57805020.000000
46289924.000000,57802159.000000
46289929.000000,57802154.000000
46305285.000000,57782744.000000
46308074.000000,57779342.000000
46350596.000000,57729291.000000
46350597.000000,57729290.000000
46355333.000000,57723715.000000
46358661.000000,57717198.000000
46362027.000000,57712150.000000
46365190.000000,57707028.000000
46369735.000000,57701284.000000
46400664.000000,57635105.000000
46402563.000000,57631221.000000
46435769.000000,57566192.000000
46437510.000000,57559077.000000
46439613.000000,57553422.000000
46441522.000000,57547683.000000
46444622.000000,57541050.000000
46459491.000000,57469565.000000
46460461.000000,57465282.000000
46476473.000000,57399844.000000
46477808.000000,57394390.000000
46478500.000000,57383236.000000
46478535.000000,57383238.000000
46478775.000000,57379266.000000
46479152.000000,57375045.000000
46480641.000000,57367885.000000
46478546.000000,57290458.000000
46478500.000000,57287050.000000
46478500.000000,41006371.000000
46498502.000000,40938250.000000
46515405.000000,40917276.000000
49235130.000000,38197551.000000
49297442.000000,38163525.000000
49368257.000000,38168590.000000
49425093.000000,38211137.000000
49450016.000000,38279394.000000
49450309.000000,38284477.000000
49451745.000000,38294697.000000
49498565.000000,38502446.000000
49501645.000000,38512275.000000
49581770.000000,38709603.000000
49586413.000000,38718794.000000
49697694.000000,38900388.000000
49703777.000000,38908699.000000
49843213.000000,39069667.000000
49850580.000000,39076883.000000
50014434.000000,39212916.000000
50022881.000000,39218831.000000
50206756.000000,39326279.000000
50216042.000000,39330729.000000
50415001.000000,39406703.000000
50424899.000000,39409579.000000
50528250.000000,39430606.000000
50542299.000000,39429410.000000
50546000.000000,39419065.000000
50546000.000000,39418517.000000
51054000.000000,39418517.000000
51058064.000000,39432359.000000
51071478.000000,39434393.000000
51078184.000000,39433534.000000
51088262.000000,39431392.000000
51292255.000000,39370191.000000
51301842.000000,39366433.000000
51493095.000000,39272739.000000
51501945.000000,39267464.000000
51675328.000000,39143792.000000
51683200.000000,39137139.000000
51834052.000000,38986812.000000
51840730.000000,38978965.000000
51965003.000000,38806020.000000
51970313.000000,38797183.000000
52064670.000000,38606267.000000
52068469.000000,38596672.000000
52130377.000000,38392910.000000
52132555.000000,38382837.000000
52133986.000000,38371962.000000
52131775.000000,38357778.000000
52118617.000000,38354000.000000
51072115.000000,38354000.000000
51056876.000000,38358475.000000
51055671.000000,38359865.000000
51054000.000000,38367548.000000
51054000.000000,39418517.000000
50546000.000000,39418517.000000
50546000.000000,37972000.000000
50566002.000000,37903879.000000
50619658.000000,37857386.000000
50672000.000000,37846000.000000
52118344.000000,37846000.000000
52131875.000000,37842027.000000
52133180.000000,37832947.000000
52091214.000000,37665875.000000
52087894.000000,37656124.000000
52002972.000000,37460814.000000
51998105.000000,37451739.000000
51882426.000000,37272926.000000
51876136.000000,37264757.000000
51732806.000000,37107240.000000
51725273.000000,37100215.000000
51558139.000000,36968222.000000
51549556.000000,36962520.000000
51512602.000000,36942120.000000
51462631.000000,36891687.000000
51447859.000000,36822245.000000
51472975.000000,36755839.000000
51500327.000000,36729232.000000
51523797.000000,36712491.000000
51679860.000000,36601173.000000
51838096.000000,36443489.000000
51855131.000000,36419783.000000
51965435.000000,36266277.000000
51968453.000000,36262077.000000
51987980.000000,36222568.000000
52065136.000000,36066453.000000
52065137.000000,36066451.000000
52067430.000000,36061811.000000
52132370.000000,35848069.000000
52161529.000000,35626590.000000
52163156.000000,35560000.000000
52144852.000000,35337361.000000
52090431.000000,35120702.000000
52001354.000000,34915840.000000
51892968.000000,34748301.000000
51882822.000000,34732617.000000
51882820.000000,34732614.000000
51880014.000000,34728277.000000
51729670.000000,34563051.000000
51725619.000000,34559852.000000
51725615.000000,34559848.000000
51558414.000000,34427800.000000
51558410.000000,34427798.000000
51554359.000000,34424598.000000
51513053.000000,34401796.000000
51463084.000000,34351364.000000
51448312.000000,34281921.000000
51473428.000000,34215516.000000
51500780.000000,34188909.000000
51600349.000000,34117887.000000
51679860.000000,34061173.000000
51838096.000000,33903489.000000
51968453.000000,33722077.000000
52013806.000000,33630313.000000
52065136.000000,33526453.000000
52065137.000000,33526451.000000
52067430.000000,33521811.000000
52132370.000000,33308069.000000
52161529.000000,33086590.000000
52163156.000000,33020000.000000
52144852.000000,32797361.000000
52090431.000000,32580702.000000
52001354.000000,32375840.000000
51880014.000000,32188277.000000
51876532.000000,32184450.000000
51732798.000000,32026488.000000
51701746.000000,31962642.000000
51710141.000000,31892143.000000
51755317.000000,31837375.000000
51781761.000000,31823706.000000
51888297.000000,31783767.000000
51896705.000000,31780615.000000
52013261.000000,31693261.000000
52100615.000000,31576705.000000
52151745.000000,31440316.000000
52158500.000000,31378134.000000
52158500.000000,29581866.000000
52151745.000000,29519684.000000
52100615.000000,29383295.000000
52013261.000000,29266739.000000
51896705.000000,29179385.000000
51760316.000000,29128255.000000
51698134.000000,29121500.000000
49901866.000000,29121500.000000
49839684.000000,29128255.000000
49703295.000000,29179385.000000
49586739.000000,29266739.000000
49499385.000000,29383295.000000
49448255.000000,29519684.000000
49441500.000000,29581866.000000
49441500.000000,29595500.000000
49421498.000000,29663621.000000
49367842.000000,29710114.000000
49315500.000000,29721500.000000
43434965.000000,29721500.000000
43366844.000000,29701498.000000
43327533.000000,29661336.000000
43284176.000000,29590584.000000
43129969.000000,29410031.000000
42949416.000000,29255824.000000
42945208.000000,29253245.000000
42945202.000000,29253241.000000
42751183.000000,29134346.000000
42746963.000000,29131760.000000
42742393.000000,29129867.000000
42742389.000000,29129865.000000
42532167.000000,29042789.000000
42532165.000000,29042788.000000
42527594.000000,29040895.000000
42447391.000000,29021640.000000
42301524.000000,28986620.000000
42301518.000000,28986619.000000
42296711.000000,28985465.000000
42060000.000000,28966835.000000
41823289.000000,28985465.000000
41818482.000000,28986619.000000
41818476.000000,28986620.000000
41672609.000000,29021640.000000
41592406.000000,29040895.000000
41587835.000000,29042788.000000
41587833.000000,29042789.000000
41377611.000000,29129865.000000
41377607.000000,29129867.000000
41373037.000000,29131760.000000
41368817.000000,29134346.000000
41174798.000000,29253241.000000
41174792.000000,29253245.000000
41170584.000000,29255824.000000
40990031.000000,29410031.000000
40835824.000000,29590584.000000
40792467.000000,29661336.000000
40739819.000000,29708967.000000
40685035.000000,29721500.000000
36934965.000000,29721500.000000
36866844.000000,29701498.000000
36827533.000000,29661336.000000
36784176.000000,29590584.000000
36629969.000000,29410031.000000
36449416.000000,29255824.000000
36445208.000000,29253245.000000
36445202.000000,29253241.000000
36251183.000000,29134346.000000
36246963.000000,29131760.000000
36242393.000000,29129867.000000
36242389.000000,29129865.000000
36032167.000000,29042789.000000
36032165.000000,29042788.000000
36027594.000000,29040895.000000
35947391.000000,29021640.000000
35801524.000000,28986620.000000
35801518.000000,28986619.000000
35796711.000000,28985465.000000
35560000.000000,28966835.000000
35323289.000000,28985465.000000
35318482.000000,28986619.000000
35318476.000000,28986620.000000
35172609.000000,29021640.000000
35092406.000000,29040895.000000
35087835.000000,29042788.000000
35087833.000000,29042789.000000
34877611.000000,29129865.000000
34877607.000000,29129867.000000
34873037.000000,29131760.000000
34868817.000000,29134346.000000
34674798.000000,29253241.000000
34674792.000000,29253245.000000
34670584.000000,29255824.000000
34490031.000000,29410031.000000
34335824.000000,29590584.000000
34333245.000000,29594792.000000
34333241.000000,29594798.000000
34255598.000000,29721500.000000
34211760.000000,29793037.000000
34120895.000000,30012406.000000
34065465.000000,30243289.000000
34046835.000000,30480000.000000
34065465.000000,30716711.000000
34120895.000000,30947594.000000
34211760.000000,31166963.000000
34214346.000000,31171183.000000
34333241.000000,31365202.000000
34333245.000000,31365208.000000
34335824.000000,31369416.000000
34490031.000000,31549969.000000
34670584.000000,31704176.000000
34674792.000000,31706755.000000
34674798.000000,31706759.000000
34865638.000000,31823706.000000
34873037.000000,31828240.000000
34877607.000000,31830133.000000
34877611.000000,31830135.000000
35087833.000000,31917211.000000
35092406.000000,31919105.000000
35153357.000000,31933738.000000
35318476.000000,31973380.000000
35318482.000000,31973381.000000
35323289.000000,31974535.000000
35560000.000000,31993165.000000
35796711.000000,31974535.000000
35801518.000000,31973381.000000
35801524.000000,31973380.000000
35966643.000000,31933738.000000
36027594.000000,31919105.000000
36032167.000000,31917211.000000
36242389.000000,31830135.000000
36242393.000000,31830133.000000
36246963.000000,31828240.000000
36254362.000000,31823706.000000
36445202.000000,31706759.000000
36445208.000000,31706755.000000
36449416.000000,31704176.000000
36629969.000000,31549969.000000
36784176.000000,31369416.000000
36827533.000000,31298664.000000
36880181.000000,31251033.000000
36934965.000000,31238500.000000
40685035.000000,31238500.000000
40753156.000000,31258502.000000
40792466.000000,31298663.000000
40835824.000000,31369416.000000
40990031.000000,31549969.000000
41170584.000000,31704176.000000
41174792.000000,31706755.000000
41174798.000000,31706759.000000
41365638.000000,31823706.000000
41373037.000000,31828240.000000
41377607.000000,31830133.000000
41377611.000000,31830135.000000
41587833.000000,31917211.000000
41592406.000000,31919105.000000
41653357.000000,31933738.000000
41818476.000000,31973380.000000
41818482.000000,31973381.000000
41823289.000000,31974535.000000
42060000.000000,31993165.000000
42296711.000000,31974535.000000
42301518.000000,31973381.000000
42301524.000000,31973380.000000
42466643.000000,31933738.000000
42527594.000000,31919105.000000
42532167.000000,31917211.000000
42742389.000000,31830135.000000
42742393.000000,31830133.000000
42746963.000000,31828240.000000
42754362.000000,31823706.000000
42945202.000000,31706759.000000
42945208.000000,31706755.000000
42949416.000000,31704176.000000
43129969.000000,31549969.000000
43284176.000000,31369416.000000
43327533.000000,31298664.000000
43380181.000000,31251033.000000
43434965.000000,31238500.000000
49315500.000000,31238500.000000
49383621.000000,31258502.000000
49430114.000000,31312158.000000
49441500.000000,31364500.000000
49441500.000000,31378134.000000
49448255.000000,31440316.000000
49499385.000000,31576705.000000
49586739.000000,31693261.000000
49703295.000000,31780615.000000
49711704.000000,31783767.000000
49711705.000000,31783768.000000
49820451.000000,31824535.000000
49877216.000000,31867176.000000
49901916.000000,31933738.000000
49886709.000000,32003087.000000
49867316.000000,32029568.000000
49740629.000000,32162138.000000
49614743.000000,32346680.000000
49520688.000000,32549305.000000
49460989.000000,32764570.000000
49437251.000000,32986695.000000
49450110.000000,33209715.000000
49451247.000000,33214760.000000
49451966.000000,33219877.000000
49450518.000000,33220081.000000
49446398.000000,33284274.000000
49417119.000000,33330200.000000
41571089.000000,41176230.000000
41556677.000000,41188616.000000
41545082.000000,41197149.000000
41545077.000000,41197154.000000
41539182.000000,41201492.000000
41534443.000000,41207070.000000
41534440.000000,41207073.000000
41504965.000000,41241768.000000
41498035.000000,41249284.000000
41492340.000000,41254979.000000
41490060.000000,41257861.000000
41474719.000000,41277251.000000
41471928.000000,41280655.000000
41429409.000000,41330703.000000
41424667.000000,41336285.000000
41421339.000000,41342801.000000
41417972.000000,41347850.000000
41414805.000000,41352979.000000
41410266.000000,41358716.000000
41379345.000000,41424875.000000
41377442.000000,41428769.000000
41344231.000000,41493808.000000
41342492.000000,41500916.000000
41340393.000000,41506559.000000
41338476.000000,41512322.000000
41335378.000000,41518950.000000
41333888.000000,41526112.000000
41333888.000000,41526113.000000
41320514.000000,41590412.000000
41319544.000000,41594696.000000
41302192.000000,41665610.000000
41301500.000000,41676764.000000
41301464.000000,41676762.000000
41301225.000000,41680755.000000
41300851.000000,41684947.000000
41299360.000000,41692115.000000
41299558.000000,41699432.000000
41301454.000000,41769521.000000
41301500.000000,41772928.000000
41301500.000000,44345035.000000
41281498.000000,44413156.000000
41241337.000000,44452466.000000
41170584.000000,44495824.000000
40990031.000000,44650031.000000
40835824.000000,44830584.000000
40792467.000000,44901336.000000
40739819.000000,44948967.000000
40685035.000000,44961500.000000
36934965.000000,44961500.000000
36866844.000000,44941498.000000
36827533.000000,44901336.000000
36784176.000000,44830584.000000
36629969.000000,44650031.000000
36449416.000000,44495824.000000
36445208.000000,44493245.000000
36445202.000000,44493241.000000
36251183.000000,44374346.000000
36246963.000000,44371760.000000
36242393.000000,44369867.000000
36242389.000000,44369865.000000
36032167.000000,44282789.000000
36032165.000000,44282788.000000
36027594.000000,44280895.000000
35947391.000000,44261640.000000
35801524.000000,44226620.000000
35801518.000000,44226619.000000
35796711.000000,44225465.000000
35560000.000000,44206835.000000
35323289.000000,44225465.000000
35318482.000000,44226619.000000
35318476.000000,44226620.000000
35172609.000000,44261640.000000
35092406.000000,44280895.000000
35087835.000000,44282788.000000
35087833.000000,44282789.000000
34877611.000000,44369865.000000
34877607.000000,44369867.000000
34873037.000000,44371760.000000
34868817.000000,44374346.000000
34674798.000000,44493241.000000
34674792.000000,44493245.000000
34670584.000000,44495824.000000
34490031.000000,44650031.000000
34335824.000000,44830584.000000
34333245.000000,44834792.000000
34333241.000000,44834798.000000
34267855.000000,44941498.000000
34211760.000000,45033037.000000
34120895.000000,45252406.000000
34065465.000000,45483289.000000
34046835.000000,45720000.000000
34065465.000000,45956711.000000
34120895.000000,46187594.000000
34211760.000000,46406963.000000
34214346.000000,46411183.000000
34333241.000000,46605202.000000
34333245.000000,46605208.000000
34335824.000000,46609416.000000
34490031.000000,46789969.000000
34670584.000000,46944176.000000
34674792.000000,46946755.000000
34674798.000000,46946759.000000
34868817.000000,47065654.000000
34873037.000000,47068240.000000
34877607.000000,47070133.000000
34877611.000000,47070135.000000
35087833.000000,47157211.000000
35092406.000000,47159105.000000
35172609.000000,47178360.000000
35318476.000000,47213380.000000
35318482.000000,47213381.000000
35323289.000000,47214535.000000
35560000.000000,47233165.000000
35796711.000000,47214535.000000
35801518.000000,47213381.000000
35801524.000000,47213380.000000
35947391.000000,47178360.000000
36027594.000000,47159105.000000
36032167.000000,47157211.000000
36242389.000000,47070135.000000
36242393.000000,47070133.000000
36246963.000000,47068240.000000
36251183.000000,47065654.000000
36445202.000000,46946759.000000
36445208.000000,46946755.000000
36449416.000000,46944176.000000
36629969.000000,46789969.000000
36784176.000000,46609416.000000
36827533.000000,46538664.000000
36880181.000000,46491033.000000
36934965.000000,46478500.000000
40685035.000000,46478500.000000
40753156.000000,46498502.000000
40792466.000000,46538663.000000
40835824.000000,46609416.000000
40990031.000000,46789969.000000
41170584.000000,46944176.000000
41174792.000000,46946755.000000
41174798.000000,46946759.000000
41368817.000000,47065654.000000
41373037.000000,47068240.000000
41377607.000000,47070133.000000
41377611.000000,47070135.000000
41587833.000000,47157211.000000
41592406.000000,47159105.000000
41672609.000000,47178360.000000
41818476.000000,47213380.000000
41818482.000000,47213381.000000
41823289.000000,47214535.000000
42060000.000000,47233165.000000
42296711.000000,47214535.000000
42301518.000000,47213381.000000
42301524.000000,47213380.000000
42447391.000000,47178360.000000
42527594.000000,47159105.000000
42532167.000000,47157211.000000
42742389.000000,47070135.000000
42742393.000000,47070133.000000
42746963.000000,47068240.000000
42751183.000000,47065654.000000
42945202.000000,46946759.000000
42945208.000000,46946755.000000
42949416.000000,46944176.000000
43129969.000000,46789969.000000
43284176.000000,46609416.000000
43286755.000000,46605208.000000
43286759.000000,46605202.000000
43405654.000000,46411183.000000
43408240.000000,46406963.000000
43499105.000000,46187594.000000
43554535.000000,45956711.000000
43573165.000000,45720000.000000
43554535.000000,45483289.000000
43499105.000000,45252406.000000
43408240.000000,45033037.000000
43352145.000000,44941498.000000
43286759.000000,44834798.000000
43286755.000000,44834792.000000
43284176.000000,44830584.000000
43129969.000000,44650031.000000
42949416.000000,44495824.000000
42878664.000000,44452467.000000
42831033.000000,44399819.000000
42818500.000000,44345035.000000
42818500.000000,42126371.000000
42838502.000000,42058250.000000
42855405.000000,42037276.000000
49234656.000000,35658025.000000
49296968.000000,35623999.000000
49367783.000000,35629064.000000
49424619.000000,35671611.000000
49449542.000000,35739865.000000
49450110.000000,35749715.000000
49451247.000000,35754760.000000
49451966.000000,35759877.000000
49450518.000000,35760081.000000
49446398.000000,35824274.000000
49417119.000000,35870200.000000
45231089.000000,40056230.000000
45216677.000000,40068616.000000
45205082.000000,40077149.000000
45205077.000000,40077154.000000
45199182.000000,40081492.000000
45194443.000000,40087070.000000
45194440.000000,40087073.000000
45164965.000000,40121768.000000
45158035.000000,40129284.000000
45152340.000000,40134979.000000
45150060.000000,40137861.000000
45134719.000000,40157251.000000
45131928.000000,40160655.000000
45089409.000000,40210703.000000
45084667.000000,40216285.000000
45081339.000000,40222801.000000
45077972.000000,40227850.000000
45074805.000000,40232979.000000
45070266.000000,40238716.000000
45039345.000000,40304875.000000
45037442.000000,40308769.000000
45004231.000000,40373808.000000
45002492.000000,40380916.000000
45000393.000000,40386559.000000
44998476.000000,40392322.000000
44995378.000000,40398950.000000
44993888.000000,40406112.000000
44993888.000000,40406113.000000
44980514.000000,40470412.000000
44979544.000000,40474696.000000
44962192.000000,40545610.000000
44961500.000000,40556764.000000
44961464.000000,40556762.000000
44961225.000000,40560755.000000
44960851.000000,40564947.000000
44959360.000000,40572115.000000
44959558.000000,40579432.000000
44961454.000000,40649521.000000
44961500.000000,40652928.000000
44961500.000000,56933630.000000
44941498.000000,57001751.000000
44924595.000000,57022725.000000
42495908.000000,59451412.000000
42433596.000000,59485438.000000
42377400.000000,59484836.000000
42301527.000000,59466621.000000
42301524.000000,59466621.000000
42296711.000000,59465465.000000
42060000.000000,59446835.000000
41823289.000000,59465465.000000
41818482.000000,59466619.000000
41818476.000000,59466620.000000
41673988.000000,59501309.000000
41592406.000000,59520895.000000
41587835.000000,59522788.000000
41587833.000000,59522789.000000
41377611.000000,59609865.000000
41377607.000000,59609867.000000
41373037.000000,59611760.000000
41368817.000000,59614346.000000
41174798.000000,59733241.000000
41174792.000000,59733245.000000
41170584.000000,59735824.000000
40990031.000000,59890031.000000
40835824.000000,60070584.000000
40792467.000000,60141336.000000
40739819.000000,60188967.000000
40685035.000000,60201500.000000
36934965.000000,60201500.000000
36866844.000000,60181498.000000
36827533.000000,60141336.000000
36784176.000000,60070584.000000
36629969.000000,59890031.000000
36449416.000000,59735824.000000
36445208.000000,59733245.000000
36445202.000000,59733241.000000
36251183.000000,59614346.000000
36246963.000000,59611760.000000
36242393.000000,59609867.000000
36242389.000000,59609865.000000
36032167.000000,59522789.000000
36032165.000000,59522788.000000
36027594.000000,59520895.000000
35946012.000000,59501309.000000
35801524.000000,59466620.000000
35801518.000000,59466619.000000
35796711.000000,59465465.000000
35560000.000000,59446835.000000
35323289.000000,59465465.000000
35318482.000000,59466619.000000
35318476.000000,59466620.000000
35173988.000000,59501309.000000
35092406.000000,59520895.000000
35087835.000000,59522788.000000
35087833.000000,59522789.000000
34877611.000000,59609865.000000
34877607.000000,59609867.000000
34873037.000000,59611760.000000
34868817.000000,59614346.000000
34674798.000000,59733241.000000
34674792.000000,59733245.000000
34670584.000000,59735824.000000
34490031.000000,59890031.000000
34335824.000000,60070584.000000
34333245.000000,60074792.000000
34333241.000000,60074798.000000
34267855.000000,60181498.000000
34211760.000000,60273037.000000
34120895.000000,60492406.000000
34065465.000000,60723289.000000
34046835.000000,60960000.000000
27400500.000000,60960000.000000
27400500.000000,51452670.000000
34692160.000000,51452670.000000
34697887.000000,51460320.000000
34869042.000000,51565205.000000
34877837.000000,51569687.000000
35087988.000000,51656734.000000
35097373.000000,51659783.000000
35318554.000000,51712885.000000
35328301.000000,51714428.000000
35555070.000000,51732275.000000
35564930.000000,51732275.000000
35791699.000000,51714428.000000
35801446.000000,51712885.000000
36022627.000000,51659783.000000
36032012.000000,51656734.000000
36242163.000000,51569687.000000
36250958.000000,51565205.000000
36418445.000000,51462568.000000
36427400.000000,51452670.000000
41192160.000000,51452670.000000
41197887.000000,51460320.000000
41369042.000000,51565205.000000
41377837.000000,51569687.000000
41587988.000000,51656734.000000
41597373.000000,51659783.000000
41818554.000000,51712885.000000
41828301.000000,51714428.000000
42055070.000000,51732275.000000
42064930.000000,51732275.000000
42291699.000000,51714428.000000
42301446.000000,51712885.000000
42522627.000000,51659783.000000
42532012.000000,51656734.000000
42742163.000000,51569687.000000
42750958.000000,51565205.000000
42918445.000000,51462568.000000
42927907.000000,51452110.000000
42924124.000000,51443334.000000
42072812.000000,50592022.000000
42058868.000000,50584408.000000
42057035.000000,50584539.000000
42050420.000000,50588790.000000
41198920.000000,51440290.000000
41192160.000000,51452670.000000
36427400.000000,51452670.000000
36427907.000000,51452110.000000
36424124.000000,51443334.000000
35572812.000000,50592022.000000
35558868.000000,50584408.000000
35557035.000000,50584539.000000
35550420.000000,50588790.000000
34698920.000000,51440290.000000
34692160.000000,51452670.000000
27400500.000000,51452670.000000
27400500.000000,50224930.000000
34047725.000000,50224930.000000
34065572.000000,50451699.000000
34067115.000000,50461446.000000
34120217.000000,50682627.000000
34123266.000000,50692012.000000
34210313.000000,50902163.000000
34214795.000000,50910958.000000
34317432.000000,51078445.000000
34327890.000000,51087907.000000
34336666.000000,51084124.000000
35187978.000000,50232812.000000
35194356.000000,50221132.000000
35924408.000000,50221132.000000
35924539.000000,50222965.000000
35928790.000000,50229580.000000
36780290.000000,51081080.000000
36792670.000000,51087840.000000
36800320.000000,51082113.000000
36905205.000000,50910958.000000
36909687.000000,50902163.000000
36996734.000000,50692012.000000
36999783.000000,50682627.000000
37052885.000000,50461446.000000
37054428.000000,50451699.000000
37072275.000000,50224930.000000
40547725.000000,50224930.000000
40565572.000000,50451699.000000
40567115.000000,50461446.000000
40620217.000000,50682627.000000
40623266.000000,50692012.000000
40710313.000000,50902163.000000
40714795.000000,50910958.000000
40817432.000000,51078445.000000
40827890.000000,51087907.000000
40836666.000000,51084124.000000
41687978.000000,50232812.000000
41694356.000000,50221132.000000
42424408.000000,50221132.000000
42424539.000000,50222965.000000
42428790.000000,50229580.000000
43280290.000000,51081080.000000
43292670.000000,51087840.000000
43300320.000000,51082113.000000
43405205.000000,50910958.000000
43409687.000000,50902163.000000
43496734.000000,50692012.000000
43499783.000000,50682627.000000
43552885.000000,50461446.000000
43554428.000000,50451699.000000
43572275.000000,50224930.000000
43572275.000000,50215070.000000
43554428.000000,49988301.000000
43552885.000000,49978554.000000
43499783.000000,49757373.000000
43496734.000000,49747988.000000
43409687.000000,49537837.000000
43405205.000000,49529042.000000
43302568.000000,49361555.000000
43292110.000000,49352093.000000
43283334.000000,49355876.000000
42432022.000000,50207188.000000
42424408.000000,50221132.000000
41694356.000000,50221132.000000
41695592.000000,50218868.000000
41695461.000000,50217035.000000
41691210.000000,50210420.000000
40839710.000000,49358920.000000
40827330.000000,49352160.000000
40819680.000000,49357887.000000
40714795.000000,49529042.000000
40710313.000000,49537837.000000
40623266.000000,49747988.000000
40620217.000000,49757373.000000
40567115.000000,49978554.000000
40565572.000000,49988301.000000
40547725.000000,50215070.000000
40547725.000000,50224930.000000
37072275.000000,50224930.000000
37072275.000000,50215070.000000
37054428.000000,49988301.000000
37052885.000000,49978554.000000
36999783.000000,49757373.000000
36996734.000000,49747988.000000
36909687.000000,49537837.000000
36905205.000000,49529042.000000
36802568.000000,49361555.000000
36792110.000000,49352093.000000
36783334.000000,49355876.000000
35932022.000000,50207188.000000
35924408.000000,50221132.000000
35194356.000000,50221132.000000
35195592.000000,50218868.000000
35195461.000000,50217035.000000
35191210.000000,50210420.000000
34339710.000000,49358920.000000
34327330.000000,49352160.000000
34319680.000000,49357887.000000
34214795.000000,49529042.000000
34210313.000000,49537837.000000
34123266.000000,49747988.000000
34120217.000000,49757373.000000
34067115.000000,49978554.000000
34065572.000000,49988301.000000
34047725.000000,50215070.000000
34047725.000000,50224930.000000
27400500.000000,50224930.000000
27400500.000000,48987890.000000
34692093.000000,48987890.000000
34695876.000000,48996666.000000
35547188.000000,49847978.000000
35561132.000000,49855592.000000
35562965.000000,49855461.000000
35569580.000000,49851210.000000
36421080.000000,48999710.000000
36427534.000000,48987890.000000
41192093.000000,48987890.000000
41195876.000000,48996666.000000
42047188.000000,49847978.000000
42061132.000000,49855592.000000
42062965.000000,49855461.000000
42069580.000000,49851210.000000
42921080.000000,48999710.000000
42927840.000000,48987330.000000
42922113.000000,48979680.000000
42750958.000000,48874795.000000
42742163.000000,48870313.000000
42532012.000000,48783266.000000
42522627.000000,48780217.000000
42301446.000000,48727115.000000
42291699.000000,48725572.000000
42064930.000000,48707725.000000
42055070.000000,48707725.000000
41828301.000000,48725572.000000
41818554.000000,48727115.000000
41597373.000000,48780217.000000
41587988.000000,48783266.000000
41377837.000000,48870313.000000
41369042.000000,48874795.000000
41201555.000000,48977432.000000
41192093.000000,48987890.000000
36427534.000000,48987890.000000
36427840.000000,48987330.000000
36422113.000000,48979680.000000
36250958.000000,48874795.000000
36242163.000000,48870313.000000
36032012.000000,48783266.000000
36022627.000000,48780217.000000
35801446.000000,48727115.000000
35791699.000000,48725572.000000
35564930.000000,48707725.000000
35555070.000000,48707725.000000
35328301.000000,48725572.000000
35318554.000000,48727115.000000
35097373.000000,48780217.000000
35087988.000000,48783266.000000
34877837.000000,48870313.000000
34869042.000000,48874795.000000
34701555.000000,48977432.000000
34692093.000000,48987890.000000
27400500.000000,48987890.000000
27400500.000000,36212670.000000
34692160.000000,36212670.000000
34697887.000000,36220320.000000
34869042.000000,36325205.000000
34877837.000000,36329687.000000
35087988.000000,36416734.000000
35097373.000000,36419783.000000
35318554.000000,36472885.000000
35328301.000000,36474428.000000
35555070.000000,36492275.000000
35564930.000000,36492275.000000
35791699.000000,36474428.000000
35801446.000000,36472885.000000
36022627.000000,36419783.000000
36032012.000000,36416734.000000
36242163.000000,36329687.000000
36250958.000000,36325205.000000
36418445.000000,36222568.000000
36427400.000000,36212670.000000
41192160.000000,36212670.000000
41197887.000000,36220320.000000
41369042.000000,36325205.000000
41377837.000000,36329687.000000
41587988.000000,36416734.000000
41597373.000000,36419783.000000
41818554.000000,36472885.000000
41828301.000000,36474428.000000
42055070.000000,36492275.000000
42064930.000000,36492275.000000
42291699.000000,36474428.000000
42301446.000000,36472885.000000
42522627.000000,36419783.000000
42532012.000000,36416734.000000
42742163.000000,36329687.000000
42750958.000000,36325205.000000
42918445.000000,36222568.000000
42927907.000000,36212110.000000
42924124.000000,36203334.000000
42072812.000000,35352022.000000
42058868.000000,35344408.000000
42057035.000000,35344539.000000
42050420.000000,35348790.000000
41198920.000000,36200290.000000
41192160.000000,36212670.000000
36427400.000000,36212670.000000
36427907.000000,36212110.000000
36424124.000000,36203334.000000
35572812.000000,35352022.000000
35558868.000000,35344408.000000
35557035.000000,35344539.000000
35550420.000000,35348790.000000
34698920.000000,36200290.000000
34692160.000000,36212670.000000
27400500.000000,36212670.000000
27400500.000000,34984930.000000
34047725.000000,34984930.000000
34065572.000000,35211699.000000
34067115.000000,35221446.000000
34120217.000000,35442627.000000
34123266.000000,35452012.000000
34210313.000000,35662163.000000
34214795.000000,35670958.000000
34317432.000000,35838445.000000
34327890.000000,35847907.000000
34336666.000000,35844124.000000
35187978.000000,34992812.000000
35194356.000000,34981132.000000
35924408.000000,34981132.000000
35924539.000000,34982965.000000
35928790.000000,34989580.000000
36780290.000000,35841080.000000
36792670.000000,35847840.000000
36800320.000000,35842113.000000
36905205.000000,35670958.000000
36909687.000000,35662163.000000
36996734.000000,35452012.000000
36999783.000000,35442627.000000
37052885.000000,35221446.000000
37054428.000000,35211699.000000
37072275.000000,34984930.000000
40547725.000000,34984930.000000
40565572.000000,35211699.000000
40567115.000000,35221446.000000
40620217.000000,35442627.000000
40623266.000000,35452012.000000
40710313.000000,35662163.000000
40714795.000000,35670958.000000
40817432.000000,35838445.000000
40827890.000000,35847907.000000
40836666.000000,35844124.000000
41687978.000000,34992812.000000
41694356.000000,34981132.000000
42424408.000000,34981132.000000
42424539.000000,34982965.000000
42428790.000000,34989580.000000
43280290.000000,35841080.000000
43292670.000000,35847840.000000
43300320.000000,35842113.000000
43405205.000000,35670958.000000
43409687.000000,35662163.000000
43496734.000000,35452012.000000
43499783.000000,35442627.000000
43552885.000000,35221446.000000
43554428.000000,35211699.000000
43572275.000000,34984930.000000
43572275.000000,34975070.000000
43554428.000000,34748301.000000
43552885.000000,34738554.000000
43499783.000000,34517373.000000
43496734.000000,34507988.000000
43409687.000000,34297837.000000
43405205.000000,34289042.000000
43302568.000000,34121555.000000
43292110.000000,34112093.000000
43283334.000000,34115876.000000
42432022.000000,34967188.000000
42424408.000000,34981132.000000
41694356.000000,34981132.000000
41695592.000000,34978868.000000
41695461.000000,34977035.000000
41691210.000000,34970420.000000
40839710.000000,34118920.000000
40827330.000000,34112160.000000
40819680.000000,34117887.000000
40714795.000000,34289042.000000
40710313.000000,34297837.000000
40623266.000000,34507988.000000
40620217.000000,34517373.000000
40567115.000000,34738554.000000
40565572.000000,34748301.000000
40547725.000000,34975070.000000
40547725.000000,34984930.000000
37072275.000000,34984930.000000
37072275.000000,34975070.000000
37054428.000000,34748301.000000
37052885.000000,34738554.000000
36999783.000000,34517373.000000
36996734.000000,34507988.000000
36909687.000000,34297837.000000
36905205.000000,34289042.000000
36802568.000000,34121555.000000
36792110.000000,34112093.000000
36783334.000000,34115876.000000
35932022.000000,34967188.000000
35924408.000000,34981132.000000
35194356.000000,34981132.000000
35195592.000000,34978868.000000
35195461.000000,34977035.000000
35191210.000000,34970420.000000
34339710.000000,34118920.000000
34327330.000000,34112160.000000
34319680.000000,34117887.000000
34214795.000000,34289042.000000
34210313.000000,34297837.000000
34123266.000000,34507988.000000
34120217.000000,34517373.000000
34067115.000000,34738554.000000
34065572.000000,34748301.000000
34047725.000000,34975070.000000
34047725.000000,34984930.000000
27400500.000000,34984930.000000
27400500.000000,33747890.000000
34692093.000000,33747890.000000
34695876.000000,33756666.000000
35547188.000000,34607978.000000
35561132.000000,34615592.000000
35562965.000000,34615461.000000
35569580.000000,34611210.000000
36421080.000000,33759710.000000
36427534.000000,33747890.000000
41192093.000000,33747890.000000
41195876.000000,33756666.000000
42047188.000000,34607978.000000
42061132.000000,34615592.000000
42062965.000000,34615461.000000
42069580.000000,34611210.000000
42921080.000000,33759710.000000
42927840.000000,33747330.000000
42922113.000000,33739680.000000
42750958.000000,33634795.000000
42742163.000000,33630313.000000
42532012.000000,33543266.000000
42522627.000000,33540217.000000
42301446.000000,33487115.000000
42291699.000000,33485572.000000
42064930.000000,33467725.000000
42055070.000000,33467725.000000
41828301.000000,33485572.000000
41818554.000000,33487115.000000
41597373.000000,33540217.000000
41587988.000000,33543266.000000
41377837.000000,33630313.000000
41369042.000000,33634795.000000
41201555.000000,33737432.000000
41192093.000000,33747890.000000
36427534.000000,33747890.000000
36427840.000000,33747330.000000
36422113.000000,33739680.000000
36250958.000000,33634795.000000
36242163.000000,33630313.000000
36032012.000000,33543266.000000
36022627.000000,33540217.000000
35801446.000000,33487115.000000
35791699.000000,33485572.000000
35564930.000000,33467725.000000
35555070.000000,33467725.000000
35328301.000000,33485572.000000
35318554.000000,33487115.000000
35097373.000000,33540217.000000
35087988.000000,33543266.000000
34877837.000000,33630313.000000
34869042.000000,33634795.000000
34701555.000000,33737432.000000
34692093.000000,33747890.000000
27400500.000000,33747890.000000
27400500.000000,25532703.000000
28370743.000000,25532703.000000
28408268.000000,25817734.000000
28484129.000000,26095036.000000
28596923.000000,26359476.000000
28744561.000000,26606161.000000
28924313.000000,26830528.000000
29132851.000000,27028423.000000
29366317.000000,27196186.000000
29370112.000000,27198195.000000
29370113.000000,27198196.000000
29391869.000000,27209715.000000
29620392.000000,27330712.000000
29890373.000000,27429511.000000
30171264.000000,27490755.000000
30199841.000000,27493004.000000
30394282.000000,27508307.000000
30394291.000000,27508307.000000
30396739.000000,27508500.000000
30552271.000000,27508500.000000
30554407.000000,27508354.000000
30554418.000000,27508354.000000
30762548.000000,27494165.000000
30762554.000000,27494164.000000
30766825.000000,27493873.000000
30771020.000000,27493004.000000
30771022.000000,27493004.000000
30907583.000000,27464724.000000
31048342.000000,27435574.000000
31319343.000000,27339607.000000
31574812.000000,27207750.000000
31578313.000000,27205289.000000
31578317.000000,27205287.000000
31692417.000000,27125096.000000
31810023.000000,27042441.000000
32020622.000000,26846740.000000
32202713.000000,26624268.000000
32352927.000000,26379142.000000
32468483.000000,26115898.000000
32547244.000000,25839406.000000
32587751.000000,25554784.000000
32587845.000000,25536951.000000
32587867.000000,25532703.000000
48690743.000000,25532703.000000
48728268.000000,25817734.000000
48804129.000000,26095036.000000
48916923.000000,26359476.000000
49064561.000000,26606161.000000
49244313.000000,26830528.000000
49452851.000000,27028423.000000
49686317.000000,27196186.000000
49690112.000000,27198195.000000
49690113.000000,27198196.000000
49711869.000000,27209715.000000
49940392.000000,27330712.000000
50210373.000000,27429511.000000
50491264.000000,27490755.000000
50519841.000000,27493004.000000
50714282.000000,27508307.000000
50714291.000000,27508307.000000
50716739.000000,27508500.000000
50872271.000000,27508500.000000
50874407.000000,27508354.000000
50874418.000000,27508354.000000
51082548.000000,27494165.000000
51082554.000000,27494164.000000
51086825.000000,27493873.000000
51091020.000000,27493004.000000
51091022.000000,27493004.000000
51227583.000000,27464724.000000
51368342.000000,27435574.000000
51639343.000000,27339607.000000
51894812.000000,27207750.000000
51898313.000000,27205289.000000
51898317.000000,27205287.000000
52012417.000000,27125096.000000
52130023.000000,27042441.000000
52340622.000000,26846740.000000
52522713.000000,26624268.000000
52672927.000000,26379142.000000
52788483.000000,26115898.000000
52867244.000000,25839406.000000
52907751.000000,25554784.000000
52907845.000000,25536951.000000
52909235.000000,25271583.000000
52909235.000000,25271576.000000
52909257.000000,25267297.000000
52871732.000000,24982266.000000
52795871.000000,24704964.000000
52683077.000000,24440524.000000
52535439.000000,24193839.000000
52355687.000000,23969472.000000
52147149.000000,23771577.000000
51913683.000000,23603814.000000
51891843.000000,23592250.000000
51868654.000000,23579972.000000
51659608.000000,23469288.000000
51389627.000000,23370489.000000
51108736.000000,23309245.000000
51077685.000000,23306801.000000
50885718.000000,23291693.000000
50885709.000000,23291693.000000
50883261.000000,23291500.000000
50727729.000000,23291500.000000
50725593.000000,23291646.000000
50725582.000000,23291646.000000
50517452.000000,23305835.000000
50517446.000000,23305836.000000
50513175.000000,23306127.000000
50508980.000000,23306996.000000
50508978.000000,23306996.000000
50372417.000000,23335276.000000
50231658.000000,23364426.000000
49960657.000000,23460393.000000
49705188.000000,23592250.000000
49701687.000000,23594711.000000
49701683.000000,23594713.000000
49691594.000000,23601804.000000
49469977.000000,23757559.000000
49259378.000000,23953260.000000
49077287.000000,24175732.000000
48927073.000000,24420858.000000
48811517.000000,24684102.000000
48732756.000000,24960594.000000
48692249.000000,25245216.000000
48692227.000000,25249505.000000
48692226.000000,25249512.000000
48690765.000000,25528417.000000
48690743.000000,25532703.000000
32587867.000000,25532703.000000
32589235.000000,25271583.000000
32589235.000000,25271576.000000
32589257.000000,25267297.000000
32551732.000000,24982266.000000
32475871.000000,24704964.000000
32363077.000000,24440524.000000
32215439.000000,24193839.000000
32035687.000000,23969472.000000
31827149.000000,23771577.000000
31593683.000000,23603814.000000
31571843.000000,23592250.000000
31548654.000000,23579972.000000
31339608.000000,23469288.000000
31069627.000000,23370489.000000
30788736.000000,23309245.000000
30757685.000000,23306801.000000
30565718.000000,23291693.000000
30565709.000000,23291693.000000
30563261.000000,23291500.000000
30407729.000000,23291500.000000
30405593.000000,23291646.000000
30405582.000000,23291646.000000
30197452.000000,23305835.000000
30197446.000000,23305836.000000
30193175.000000,23306127.000000
30188980.000000,23306996.000000
30188978.000000,23306996.000000
30052417.000000,23335276.000000
29911658.000000,23364426.000000
29640657.000000,23460393.000000
29385188.000000,23592250.000000
29381687.000000,23594711.000000
29381683.000000,23594713.000000
29371594.000000,23601804.000000
29149977.000000,23757559.000000
28939378.000000,23953260.000000
28757287.000000,24175732.000000
28607073.000000,24420858.000000
28491517.000000,24684102.000000
28412756.000000,24960594.000000
28372249.000000,25245216.000000
28372227.000000,25249505.000000
28372226.000000,25249512.000000
28370765.000000,25528417.000000
28370743.000000,25532703.000000
27400500.000000,25532703.000000
27400500.000000,22446500.000000
27420502.000000,22378379.000000
27474158.000000,22331886.000000
27526500.000000,22320500.000000
53753500.000000,22320500.000000
Z" /> 
</g>
</g>
</g>
<g style="fill:#FFFFFF; fill-opacity:1.0; 
stroke:#FFFFFF; stroke-width:1.000000; stroke-opacity:1; 
stroke-linecap:round; stroke-linejoin:round;">
<circle cx="50800000.000000" cy="30480000.000000" r="175000.000000" /> 
</g>
<g style="fill:#FFFFFF; fill-opacity:1.0; 
stroke:#FFFFFF; stroke-width:21200.000000; stroke-opacity:1; 
stroke-linecap:round; stroke-linejoin:round;">
</g>
<g style="fill:#FFFFFF; fill-opacity:1.0; 
stroke:#FFFFFF; stroke-width:1.000000; stroke-opacity:1; 
stroke-linecap:round; stroke-linejoin:round;">
<circle cx="50800000.000000" cy="33020000.000000" r="175000.000000" /> 
</g>
<g style="fill:#FFFFFF; fill-opacity:1.0; 
stroke:#FFFFFF; stroke-width:21200.000000; stroke-opacity:1; 
stroke-linecap:round; stroke-linejoin:round;">
</g>
<g style="fill:#FFFFFF; fill-opacity:1.0; 
stroke:#FFFFFF; stroke-width:1.000000; stroke-opacity:1; 
stroke-linecap:round; stroke-linejoin:round;">
<circle cx="50800000.000000" cy="35560000.000000" r="175000.000000" /> 
</g>
<g style="fill:#FFFFFF; fill-opacity:1.0; 
stroke:#FFFFFF; stroke-width:21200.000000; stroke-opacity:1; 
stroke-linecap:round; stroke-linejoin:round;">
</g>
<g style="fill:#FFFFFF; fill-opacity:1.0; 
stroke:#FFFFFF; stroke-width:1.000000; stroke-opacity:1; 
stroke-linecap:round; stroke-linejoin:round;">
<circle cx="50800000.000000" cy="38100000.000000" r="175000.000000" /> 
</g>
<g style="fill:#FFFFFF; fill-opacity:1.0; 
stroke:#FFFFFF; stroke-width:21200.000000; stroke-opacity:1; 
stroke-linecap:round; stroke-linejoin:round;">
</g>
<g style="fill:#FFFFFF; fill-opacity:1.0; 
stroke:#FFFFFF; stroke-width:1.000000; stroke-opacity:1; 
stroke-linecap:round; stroke-linejoin:round;">
<circle cx="30480000.000000" cy="66040000.000000" r="175000.000000" /> 
</g>
<g style="fill:#FFFFFF; fill-opacity:1.0; 
stroke:#FFFFFF; stroke-width:21200.000000; stroke-opacity:1; 
stroke-linecap:round; stroke-linejoin:round;">
</g>
<g style="fill:#FFFFFF; fill-opacity:1.0; 
stroke:#FFFFFF; stroke-width:1.000000; stroke-opacity:1; 
stroke-linecap:round; stroke-linejoin:round;">
<circle cx="50800000.000000" cy="66040000.000000" r="175000.000000" /> 
</g>
<g style="fill:#FFFFFF; fill-opacity:1.0; 
stroke:#FFFFFF; stroke-width:21200.000000; stroke-opacity:1; 
stroke-linecap:round; stroke-linejoin:round;">
</g>
<g style="fill:#FFFFFF; fill-opacity:1.0; 
stroke:#FFFFFF; stroke-width:1.000000; stroke-opacity:1; 
stroke-linecap:round; stroke-linejoin:round;">
<circle cx="42060000.000000" cy="30480000.000000" r="175000.000000" /> 
</g>
<g style="fill:#FFFFFF; fill-opacity:1.0; 
stroke:#FFFFFF; stroke-width:21200.000000; stroke-opacity:1; 
stroke-linecap:round; stroke-linejoin:round;">
</g>
<g style="fill:#FFFFFF; fill-opacity:1.0; 
stroke:#FFFFFF; stroke-width:1.000000; stroke-opacity:1; 
stroke-linecap:round; stroke-linejoin:round;">
<circle cx="35560000.000000" cy="30480000.000000" r="175000.000000" /> 
</g>
<g style="fill:#FFFFFF; fill-opacity:1.0; 
stroke:#FFFFFF; stroke-width:21200.000000; stroke-opacity:1; 
stroke-linecap:round; stroke-linejoin:round;">
</g>
<g style="fill:#FFFFFF; fill-opacity:1.0; 
stroke:#FFFFFF; stroke-width:1.000000; stroke-opacity:1; 
stroke-linecap:round; stroke-linejoin:round;">
<circle cx="42060000.000000" cy="34980000.000000" r="175000.000000" /> 
</g>
<g style="fill:#FFFFFF; fill-opacity:1.0; 
stroke:#FFFFFF; stroke-width:21200.000000; stroke-opacity:1; 
stroke-linecap:round; stroke-linejoin:round;">
</g>
<g style="fill:#FFFFFF; fill-opacity:1.0; 
stroke:#FFFFFF; stroke-width:1.000000; stroke-opacity:1; 
stroke-linecap:round; stroke-linejoin:round;">
<circle cx="35560000.000000" cy="34980000.000000" r="175000.000000" /> 
</g>
<g style="fill:#FFFFFF; fill-opacity:1.0; 
stroke:#FFFFFF; stroke-width:21200.000000; stroke-opacity:1; 
stroke-linecap:round; stroke-linejoin:round;">
</g>
<g style="fill:#FFFFFF; fill-opacity:1.0; 
stroke:#FFFFFF; stroke-width:1.000000; stroke-opacity:1; 
stroke-linecap:round; stroke-linejoin:round;">
<circle cx="35560000.000000" cy="60960000.000000" r="175000.000000" /> 
</g>
<g style="fill:#FFFFFF; fill-opacity:1.0; 
stroke:#FFFFFF; stroke-width:21200.000000; stroke-opacity:1; 
stroke-linecap:round; stroke-linejoin:round;">
</g>
<g style="fill:#FFFFFF; fill-opacity:1.0; 
stroke:#FFFFFF; stroke-width:1.000000; stroke-opacity:1; 
stroke-linecap:round; stroke-linejoin:round;">
<circle cx="42060000.000000" cy="60960000.000000" r="175000.000000" /> 
</g>
<g style="fill:#FFFFFF; fill-opacity:1.0; 
stroke:#FFFFFF; stroke-width:21200.000000; stroke-opacity:1; 
stroke-linecap:round; stroke-linejoin:round;">
</g>
<g style="fill:#FFFFFF; fill-opacity:1.0; 
stroke:#FFFFFF; stroke-width:1.000000; stroke-opacity:1; 
stroke-linecap:round; stroke-linejoin:round;">
<circle cx="42060000.000000" cy="65460000.000000" r="175000.000000" /> 
</g>
<g style="fill:#FFFFFF; fill-opacity:1.0; 
stroke:#FFFFFF; stroke-width:21200.000000; stroke-opacity:1; 
stroke-linecap:round; stroke-linejoin:round;">
</g>
<g style="fill:#FFFFFF; fill-opacity:1.0; 
stroke:#FFFFFF; stroke-width:1.000000; stroke-opacity:1; 
stroke-linecap:round; stroke-linejoin:round;">
<circle cx="35560000.000000" cy="65460000.000000" r="175000.000000" /> 
</g>
<g style="fill:#FFFFFF; fill-opacity:1.0; 
stroke:#FFFFFF; stroke-width:21200.000000; stroke-opacity:1; 
stroke-linecap:round; stroke-linejoin:round;">
</g>
<g style="fill:#FFFFFF; fill-opacity:1.0; 
stroke:#FFFFFF; stroke-width:1.000000; stroke-opacity:1; 
stroke-linecap:round; stroke-linejoin:round;">
<circle cx="30480000.000000" cy="25400000.000000" r="175000.000000" /> 
</g>
<g style="fill:#FFFFFF; fill-opacity:1.0; 
stroke:#FFFFFF; stroke-width:21200.000000; stroke-opacity:1; 
stroke-linecap:round; stroke-linejoin:round;">
</g>
<g style="fill:#FFFFFF; fill-opacity:1.0; 
stroke:#FFFFFF; stroke-width:1.000000; stroke-opacity:1; 
stroke-linecap:round; stroke-linejoin:round;">
<circle cx="35560000.000000" cy="45720000.000000" r="175000.000000" /> 
</g>
<g style="fill:#FFFFFF; fill-opacity:1.0; 
stroke:#FFFFFF; stroke-width:21200.000000; stroke-opacity:1; 
stroke-linecap:round; stroke-linejoin:round;">
</g>
<g style="fill:#FFFFFF; fill-opacity:1.0; 
stroke:#FFFFFF; stroke-width:1.000000; stroke-opacity:1; 
stroke-linecap:round; stroke-linejoin:round;">
<circle cx="42060000.000000" cy="45720000.000000" r="175000.000000" /> 
</g>
<g style="fill:#FFFFFF; fill-opacity:1.0; 
stroke:#FFFFFF; stroke-width:21200.000000; stroke-opacity:1; 
stroke-linecap:round; stroke-linejoin:round;">
</g>
<g style="fill:#FFFFFF; fill-opacity:1.0; 
stroke:#FFFFFF; stroke-width:1.000000; stroke-opacity:1; 
stroke-linecap:round; stroke-linejoin:round;">
<circle cx="42060000.000000" cy="50220000.000000" r="175000.000000" /> 
</g>
<g style="fill:#FFFFFF; fill-opacity:1.0; 
stroke:#FFFFFF; stroke-width:21200.000000; stroke-opacity:1; 
stroke-linecap:round; stroke-linejoin:round;">
</g>
<g style="fill:#FFFFFF; fill-opacity:1.0; 
stroke:#FFFFFF; stroke-width:1.000000; stroke-opacity:1; 
stroke-linecap:round; stroke-linejoin:round;">
<circle cx="35560000.000000" cy="50220000.000000" r="175000.000000" /> 
</g>
<g style="fill:#FFFFFF; fill-opacity:1.0; 
stroke:#FFFFFF; stroke-width:21200.000000; stroke-opacity:1; 
stroke-linecap:round; stroke-linejoin:round;">
</g>
<g style="fill:#FFFFFF; fill-opacity:1.0; 
stroke:#FFFFFF; stroke-width:1.000000; stroke-opacity:1; 
stroke-linecap:round; stroke-linejoin:round;">
<circle cx="50800000.000000" cy="25400000.000000" r="175000.000000" /> 
</g>
<g style="fill:#FFFFFF; fill-opacity:1.0; 
stroke:#FFFFFF; stroke-width:21200.000000; stroke-opacity:1; 
stroke-linecap:round; stroke-linejoin:round;">
</g>
<g style="fill:#000000; fill-opacity:1.0; 
stroke:#000000; stroke-width:21200.000000; stroke-opacity:1; 
stroke-linecap:round; stroke-linejoin:round;">
</g> 
</svg>
